<?xml version="1.0" encoding="UTF-8" standalone="no"?>
<!-- Created with Inkscape (http://www.inkscape.org/) -->

<svg
   version="1.1"
   id="svg1"
   preserveAspectRatio="none"
   viewBox="0 0 356 50.999992"
   sodipodi:docname="barcode.svg"
   inkscape:version="1.3 (0e150ed6c4, 2023-07-21)"
   xmlns:inkscape="http://www.inkscape.org/namespaces/inkscape"
   xmlns:sodipodi="http://sodipodi.sourceforge.net/DTD/sodipodi-0.dtd"
   xmlns="http://www.w3.org/2000/svg"
   xmlns:svg="http://www.w3.org/2000/svg">
  <defs
     id="defs1" />
  <sodipodi:namedview
     id="namedview1"
     pagecolor="#505050"
     bordercolor="#eeeeee"
     borderopacity="1"
     inkscape:showpageshadow="0"
     inkscape:pageopacity="0"
     inkscape:pagecheckerboard="0"
     inkscape:deskcolor="#505050"
     inkscape:zoom="3.3174157"
     inkscape:cx="183.12447"
     inkscape:cy="57.424217"
     inkscape:window-width="1920"
     inkscape:window-height="1017"
     inkscape:window-x="-8"
     inkscape:window-y="-8"
     inkscape:window-maximized="1"
     inkscape:current-layer="g1" />
  <g
     inkscape:groupmode="layer"
     inkscape:label="Image"
     id="g1">
    <path
       d="m -5.1244707,18.707871 v -37.999996 h 1.9999999 2.0000001 v 37.999996 38 h -2.0000001 -1.9999999 z m 5.99999996,0 v -37.999996 h 1.00000004 1 v 37.999996 38 h -1 -1.00000004 z m 5.99999974,0 v -37.999996 h 1 1 v 37.999996 38 h -1 -1 z m 10,0 v -37.999996 h 1 1 v 37.999996 38 h -1 -1 z m 6,0 v -37.999996 h 1 1 v 37.999996 38 h -1 -1 z m 4,0 v -37.999996 h 2 2 v 37.999996 38 h -2 -2 z m 12,0 v -37.999996 h 1 1 v 37.999996 38 h -1 -1 z m 6,0 v -37.999996 h 1 1 v 37.999996 38 h -1 -1 z m 6,0 v -37.999996 h 4 4 v 37.999996 38 h -4 -4 z m 10,0 v -37.999996 h 1 1 v 37.999996 38 h -1 -1 z m 6,0 v -37.999996 h 1 1 v 37.999996 38 h -1 -1 z m 10,0 v -37.999996 h 2 2 v 37.999996 38 h -2 -2 z m 6,0 v -37.999996 h 1 1 v 37.999996 38 h -1 -1 z m 8,0 v -37.999996 h 4 3.999997 v 37.999996 38 h -3.999997 -4 z m 10.000001,0 v -37.999996 h 1 1 v 37.999996 38 h -1 -1 z m 4,0 v -37.999996 h 1 1 v 37.999996 38 h -1 -1 z m 6,0 v -37.999996 h 1 1 v 37.999996 38 h -1 -1 z m 6,0 v -37.999996 h 4 4 v 37.999996 38 h -4 -4 z m 10,0 v -37.999996 h 2 2 v 37.999996 38 h -2 -2 z m 6,0 v -37.999996 h 2 2 v 37.999996 38 h -2 -2 z m 8,0 v -37.999996 h 2 2 v 37.999996 38 h -2 -2 z m 8,0 v -37.999996 h 1 1 v 37.999996 38 h -1 -1 z m 4,0 v -37.999996 h 4 4 v 37.999996 38 h -4 -4 z m 12,0 v -37.999996 h 1 1 v 37.999996 38 h -1 -1 z m 6,0 v -37.999996 h 1 1 v 37.999996 38 h -1 -1 z m 6,0 v -37.999996 h 4 4 v 37.999996 38 h -4 -4 z m 10,0 v -37.999996 h 1 1 v 37.999996 38 h -1 -1 z m 6,0 v -37.999996 h 1 1 v 37.999996 38 h -1 -1 z m 6,0 v -37.999996 h 4 4 v 37.999996 38 h -4 -4 z m 12,0 v -37.999996 h 1 1 v 37.999996 38 h -1 -1 z m 4,0 v -37.999996 h 1 1 v 37.999996 38 h -1 -1 z m 10,0 v -37.999996 h 1 1 v 37.999996 38 h -1 -1 z m 6,0 v -37.999996 h 2 2 v 37.999996 38 h -2 -2 z m 6,0 v -37.999996 h 1 1 v 37.999996 38 h -1 -1 z m 10,0 v -37.999996 h 2 2 v 37.999996 38 h -2 -2 z m 6,0 v -37.999996 h 1 1 v 37.999996 38 h -1 -1 z m 6,0 v -37.999996 h 1 1 v 37.999996 38 h -1 -1 z m 8,0 v -37.999996 h 4 4 v 37.999996 38 h -4 -4 z m 10,0 v -37.999996 h 1 1 v 37.999996 38 h -1 -1 z m 4,0 v -37.999996 h 1 1 v 37.999996 38 h -1 -1 z m 4,0 v -37.999996 h 4 4 v 37.999996 38 h -4 -4 z m 12,0 v -37.999996 h 1 1 v 37.999996 38 h -1 -1 z m 6,0 v -37.999996 h 2 2 v 37.999996 38 h -2 -2 z m 6,0 v -37.999996 h 4 4 v 37.999996 38 h -4 -4 z m 10,0 v -37.999996 h 2 2 v 37.999996 38 h -2 -2 z m 6,0 v -37.999996 h 2 2 v 37.999996 38 h -2 -2 z m 10,0 v -37.999996 h 3 3 v 37.999996 38 h -3 -3 z m 8,0 v -37.999996 h 1 1 v 37.999996 38 h -1 -1 z m 4,0 v -37.999996 h 2 2 v 37.999996 38 h -2 -2 z"
       id="path1" />
  </g>
</svg>
