<svg
   version="1.1"
   id="svg1"
   width="416"
   height="416"
   viewBox="0 0 416 416"
   sodipodi:docname="logo.svg"
   inkscape:version="1.3 (0e150ed6c4, 2023-07-21)"
   xmlns:inkscape="http://www.inkscape.org/namespaces/inkscape"
   xmlns:sodipodi="http://sodipodi.sourceforge.net/DTD/sodipodi-0.dtd"
   xmlns="http://www.w3.org/2000/svg"
   xmlns:svg="http://www.w3.org/2000/svg">
  <defs
     id="defs1" />
  <sodipodi:namedview
     id="namedview1"
     pagecolor="#505050"
     bordercolor="#eeeeee"
     borderopacity="1"
     inkscape:showpageshadow="0"
     inkscape:pageopacity="0"
     inkscape:pagecheckerboard="0"
     inkscape:deskcolor="#505050"
     inkscape:zoom="1.9735577"
     inkscape:cx="234.85505"
     inkscape:cy="208"
     inkscape:window-width="1920"
     inkscape:window-height="1017"
     inkscape:window-x="-8"
     inkscape:window-y="-8"
     inkscape:window-maximized="1"
     inkscape:current-layer="g1" />
  <g
     inkscape:groupmode="layer"
     inkscape:label="Image"
     id="g1">
    <path
       style="stroke-width:1.18952"
       d="m 235.38077,400.47558 c -0.39716,-0.39955 -34.21538,-1.27465 -74.91548,-1.93859 -35.43046,-0.57795 -83.20541,-1.76893 -95.161556,-2.37228 -6.542357,-0.33014 -17.783316,-0.83525 -24.979909,-1.12246 -14.976248,-0.59769 -20.590333,-2.13939 -21.357704,-5.8651 -1.523448,-7.39656 -2.916195,-60.29789 -2.353457,-89.39247 0.354311,-18.3186 0.481431,-37.85646 0.282487,-43.41746 -1.389977,-38.85354 0.497448,-188.750928 2.421926,-192.346848 1.077054,-2.012493 1.000366,-4.241935 -0.344164,-10.00542 -0.951511,-4.078762 -1.399023,-7.951491 -0.994473,-8.606068 0.404551,-0.654576 0.864353,-6.112708 1.021785,-12.129181 0.184405,-7.047365 0.941902,-12.206957 2.129234,-14.503004 1.013647,-1.96018 1.732426,-5.107538 1.597285,-6.994129 -0.262498,-3.6645064 13.858114,-5.2659006 17.176103,-1.9479123 0.926246,0.9262473 2.661498,0.8053563 6.160582,-0.429193 4.991117,-1.7609679 8.803051,-1.5954034 23.095113,1.0030963 7.071179,1.28564 7.330494,1.452294 5.465857,3.512697 -2.823514,3.119948 -0.3438,2.6587 4.358809,-0.810775 5.079713,-3.7476903 15.451752,-4.3453731 15.481965,-0.892139 0.01071,1.175518 0.398632,1.563864 0.89214,0.892139 0.480661,-0.654236 2.212142,-1.252905 3.847719,-1.330379 1.635588,-0.07747 7.163768,-1.061962 12.284838,-2.1877563 6.99948,-1.5387335 10.10023,-1.7372429 12.48995,-0.7996005 7.13644,2.8000888 11.85057,2.8818428 16.06276,0.2785655 5.6254,-3.4766851 11.57945,-3.287963 14.84749,0.470612 1.42213,1.6355893 3.55274,2.9737983 4.73469,2.9737983 1.18194,0 2.72943,0.58043 3.43884,1.289844 0.70942,0.709414 4.69729,1.579961 8.86192,1.93455 5.19183,0.442046 8.38264,1.38159 10.15064,2.988893 2.57437,2.340374 2.57921,2.33984 2.9738,-0.328311 1.14283,-7.7275 28.16373,-11.8022335 38.36219,-5.784992 5.05877,2.984745 9.21082,2.602902 10.78804,-0.992123 0.6855,-1.562471 2.2219,-2.6764194 3.69145,-2.6764194 1.38448,0 5.69031,-0.3316523 9.56853,-0.737006 6.53513,-0.6830578 7.34419,-0.4905484 11.05267,2.6299374 4.00139,3.366942 4.00139,3.366942 9.7771,0.142246 6.97309,-3.893227 12.26986,-4.0786101 20.11436,-0.703993 3.22274,1.386386 6.97164,2.22988 8.33088,1.874431 1.35924,-0.355449 4.04679,-0.09707 5.97235,0.574184 2.59382,0.904212 6.3326,0.70008 14.42875,-0.787789 9.5512,-1.755268 12.68021,-1.824919 24.8395,-0.552927 7.65147,0.800425 15.38552,1.173589 17.18679,0.829255 1.80126,-0.344335 5.61663,0.1718 8.47858,1.146966 4.75402,1.619859 5.476,1.594511 8.35733,-0.293407 5.61175,-3.6769613 22.34167,-3.1662013 20.00735,0.610819 -0.35515,0.574637 0.51193,1.216885 1.92685,1.427218 4.12646,0.613412 5.28779,3.646663 3.1666,8.270761 -2.72462,5.939546 -3.74426,10.94883 -2.01054,9.877331 0.99673,-0.616019 1.23526,0.04112 0.81427,2.243373 -0.32747,1.713026 -0.13743,2.83156 0.4223,2.48563 1.97388,-1.219932 0.98679,2.798439 -1.4477,5.893379 -1.8941,2.407962 -2.06406,3.134216 -0.73349,3.134216 2.32354,0 3.45867,4.784647 1.66219,7.006177 -1.05889,1.30941 -1.06742,1.555397 -0.0324,0.934635 2.00732,-1.20393 3.39792,1.625737 1.42412,2.897855 -1.39059,0.896228 -1.38812,1.218345 0.0162,2.123056 1.36302,0.878117 1.18959,1.720794 -0.98171,4.770119 -2.63721,3.703593 -2.63721,3.703593 -0.0329,7.917437 2.75363,4.45545 2.42899,6.636469 -0.61212,4.112565 -2.71878,-2.25638 -2.18502,0.460296 0.58252,2.964882 1.90479,1.723816 2.23832,3.040948 1.62805,6.429341 -1.02386,5.684762 -1.75685,6.738819 -3.06306,4.404732 -0.59912,-1.070556 -0.81623,-2.388294 -0.48248,-2.9283 0.33374,-0.540018 -0.21167,-0.981853 -1.21204,-0.981853 -1.322,0 -1.58672,0.676955 -0.9691,2.478173 1.19944,3.498056 1.22721,9.121236 0.0614,12.440662 -0.65314,1.85975 -0.57496,2.56746 0.22879,2.07072 1.54358,-0.95399 5.2565,2.65558 4.58844,4.46074 -0.55857,1.50934 -0.69562,1.49267 -7.33891,-0.89291 -2.61694,-0.93974 -5.02487,-1.44513 -5.35097,-1.12308 -0.90105,0.88988 3.76992,3.97438 4.93145,3.25651 0.55785,-0.34477 1.01428,1.48344 1.01428,4.06269 0,5.86364 4.27561,8.171 5.10803,2.75658 0.44995,-2.92671 0.48721,-2.89746 0.54277,0.42616 0.077,4.6024 -1.77675,11.05906 -1.96367,6.83973 -0.16096,-3.63433 -2.49756,-3.4218 -2.49756,0.22718 0,1.59698 0.53528,3.23442 1.18952,3.63876 0.65424,0.40434 1.18952,2.81312 1.18952,5.35284 0,2.53972 0.50436,4.92938 1.12079,5.31036 1.13781,0.70321 3.18456,10.99084 2.6016,13.07653 -0.17507,0.62638 -0.30688,4.75903 -0.29289,9.18369 0.014,4.42465 -0.48429,8.35986 -1.10727,8.74488 -1.50132,0.92786 -1.45727,7.35576 0.0569,8.29152 1.67045,1.0324 1.48492,5.05611 -0.25995,5.63774 -1.13742,0.37914 -1.13283,1.48883 0.0213,5.15458 0.80893,2.56929 1.69523,12.43305 1.96957,21.91947 0.27434,9.48642 0.8714,21.06973 1.3268,25.7407 0.80527,8.25932 0.74226,8.54886 -2.29319,10.53778 -3.0964,2.02883 -3.10393,2.07006 -0.94694,5.18679 3.44629,4.97967 3.85861,7.2244 1.88132,10.24213 -1.51091,2.30593 -1.57493,3.24133 -0.35553,5.19392 1.16368,1.86334 1.17486,2.75789 0.0514,4.11157 -1.5316,1.84547 -0.75702,5.16958 1.80982,7.76683 1.83959,1.86139 2.0472,5.71446 0.36394,6.75477 -0.65424,0.40434 -1.18952,0.1367 -1.18952,-0.59476 0,-0.73146 -0.54103,-0.99556 -1.20227,-0.58688 -0.76704,0.47405 -0.58899,1.61865 0.49183,3.16173 1.26705,1.80897 1.39826,3.26735 0.52054,5.78521 -0.79769,2.28827 -0.76369,4.13237 0.10611,5.75767 0.91894,1.71705 0.91139,2.61879 -0.0268,3.1986 -0.72236,0.44645 -1.08369,2.71582 -0.80817,5.07584 0.41004,3.51223 -0.118,4.8708 -2.98058,7.6691 -4.37289,4.27462 -3.58883,5.54052 0.87141,1.40693 4.25065,-3.93938 4.64045,-3.36278 3.6274,5.36567 -0.73259,6.31209 -1.26468,7.46122 -4.14443,8.95039 -3.44525,1.78161 -4.78175,3.97608 -4.78175,7.85148 0,1.99406 0.3091,2.0988 2.37904,0.8061 1.30848,-0.81715 2.37904,-2.69519 2.37904,-4.1734 0,-5.65438 2.11197,-2.36282 2.6641,4.15207 0.61441,7.24971 -0.41175,12.49556 -1.95564,9.99751 -0.91587,-1.48197 -3.08746,-0.78509 -3.08746,0.99079 0,2.46224 3.79798,4.87373 5.47887,3.47872 1.34543,-1.1166 1.65825,-0.79479 1.65825,1.70589 0,2.39305 -0.44509,2.91133 -1.9908,2.31819 -1.51603,-0.58176 -1.7997,-0.28919 -1.18951,1.22684 0.4407,1.09494 1.12617,2.79372 1.52329,3.77507 0.46348,1.14534 0.0375,1.78428 -1.18952,1.78428 -2.40108,0 -2.5009,1.89836 -0.14732,2.80151 2.04976,0.78656 1.15598,4.15944 -1.69051,6.37944 -1.66082,1.29528 -1.63707,1.45308 0.22367,1.4869 1.14491,0.0208 2.08166,0.92997 2.08166,2.02036 0,1.09039 -0.35222,1.63032 -0.78269,1.19984 -0.43049,-0.43048 -1.50106,-0.18651 -2.37904,0.54216 -1.25018,1.03754 -1.59635,0.77736 -1.59635,-1.19985 0,-1.47687 -0.75789,-2.52468 -1.82613,-2.52468 -1.38068,0 -1.55037,0.51527 -0.69563,2.11237 0.6812,1.27283 0.70392,2.87466 0.0571,4.03037 -0.7331,1.30997 -0.50793,2.38725 0.71028,3.39829 1.37237,1.13895 1.4669,1.86196 0.40996,3.13549 -1.68046,2.02483 -0.61648,3.33774 1.91704,2.36555 1.32241,-0.50746 1.6458,-1.58814 1.11187,-3.71551 -0.57106,-2.27553 -0.29089,-2.99993 1.16035,-2.99993 1.29874,0 1.91324,1.06114 1.91324,3.30388 0,8.92364 -14.96895,16.94714 -19.65673,10.5362 -1.34482,-1.83914 -1.54159,-1.76606 -2.18891,0.81301 -0.71968,2.86745 -6.41377,3.27528 -25.73514,1.84322 -1.63559,-0.12123 -17.272,0.12032 -34.74758,0.53677 -17.47559,0.41645 -36.7458,0.31111 -42.8227,-0.2341 -6.07691,-0.5452 -17.65188,-0.6672 -25.72216,-0.27111 -8.07027,0.39609 -14.86032,0.53195 -15.089,0.30191 z m 140.98231,-3.1503 c 0,-0.32712 -0.26764,-0.59476 -0.59476,-0.59476 -0.32712,0 -0.59476,0.26764 -0.59476,0.59476 0,0.32712 0.26764,0.59476 0.59476,0.59476 0.32712,0 0.59476,-0.26764 0.59476,-0.59476 z m 9.28642,-2.41051 c -0.36624,-0.36625 -1.03137,0.29394 -1.47807,1.46707 -0.64553,1.6953 -0.5089,1.83193 0.66589,0.66589 0.81294,-0.8069 1.17842,-1.76672 0.81218,-2.13296 z m -2.92835,-10.72551 c -0.38741,-1.00957 -0.9595,-1.58047 -1.27129,-1.26866 -0.31181,0.31181 -0.21409,1.13783 0.21714,1.83559 1.17293,1.89783 1.85848,1.52913 1.05415,-0.56693 z m 16.2428,-12.9632 c 0,-0.28851 -0.61799,-0.9065 -1.37331,-1.37332 -0.85087,-0.52586 -1.05042,-0.32631 -0.52456,0.52456 0.84746,1.37122 1.89787,1.84098 1.89787,0.84876 z m -11.10218,-7.40558 c -0.43616,-0.43615 -0.79302,-0.0793 -0.79302,0.79301 0,0.87231 0.35686,1.22917 0.79302,0.79302 0.43615,-0.43616 0.43615,-1.14987 0,-1.58603 z m -15.06725,0.19825 c 0,-0.32711 -0.26764,-0.59476 -0.59476,-0.59476 -0.32712,0 -0.59476,0.26765 -0.59476,0.59476 0,0.32712 0.26764,0.59476 0.59476,0.59476 0.32712,0 0.59476,-0.26764 0.59476,-0.59476 z m 6.54236,-1.78428 c 0.40434,-0.65423 -0.13095,-1.18952 -1.18952,-1.18952 -1.05858,0 -1.59386,0.53529 -1.18952,1.18952 0.40434,0.65424 0.93962,1.18952 1.18952,1.18952 0.24989,0 0.78518,-0.53528 1.18952,-1.18952 z m 13.36962,-3.94331 c -0.81094,-1.74638 -1.88964,-3.17942 -2.39711,-3.18452 -0.50748,-0.005 -0.0665,1.64631 0.97985,3.66982 2.29206,4.43236 3.50752,4.01616 1.41726,-0.4853 z m 5.06793,3.41876 c 0,-0.28851 -0.53528,-0.85538 -1.18952,-1.25973 -0.65424,-0.40434 -1.18952,-0.16829 -1.18952,0.52456 0,0.69285 0.53528,1.25972 1.18952,1.25972 0.65424,0 1.18952,-0.23604 1.18952,-0.52455 z M 83.146527,358.71287 c 16.084845,-2.53445 72.775443,-3.3497 76.966293,-1.10682 2.6717,1.42985 27.34604,1.62596 53.88085,0.42825 10.46777,-0.47248 34.82318,-0.96499 54.12313,-1.09445 30.77172,-0.20641 53.8845,-1.6414 56.9497,-3.53579 0.53669,-0.33169 9.12786,-0.0209 19.0915,0.69057 22.28001,1.59103 20.90464,2.6274 20.90464,-15.75215 0,-11.31779 0.36334,-14.47155 1.76789,-15.34511 1.51352,-0.94134 1.54127,-1.66349 0.19292,-5.019 -2.98635,-7.43181 -3.589,-12.11068 -2.71584,-21.0856 0.48174,-4.95181 0.68501,-19.70896 0.45168,-32.79367 -1.1367,-63.74877 -2.24795,-101.24748 -3.03827,-102.52625 -0.47949,-0.77585 -1.06136,-25.84679 -1.29302,-55.7132 -0.35157,-45.326965 -0.70493,-54.586308 -2.1378,-56.019183 -2.62558,-2.625586 -28.20031,-4.444432 -48.54021,-3.452126 -30.39098,1.48266 -72.49965,0.171741 -82.26375,-2.561018 -5.2759,-1.476613 -7.54576,-1.598735 -10.50985,-0.565446 -5.13337,1.789503 -11.27439,-0.71624 -12.36047,-5.043484 -0.99812,-3.97687 -2.11659,-3.903276 -7.09379,0.466759 -4.80234,4.21651 -6.72409,4.508964 -6.72409,1.023276 0,-1.399906 -0.82997,-3.152163 -1.84435,-3.893905 -1.0144,-0.741743 -2.21879,-3.923584 -2.67642,-7.070758 -0.83207,-5.722136 -0.83207,-5.722136 -3.73065,-2.632698 -2.18153,2.325194 -2.56075,3.42725 -1.53296,4.455038 1.02779,1.027788 0.88215,2.184016 -0.58873,4.674025 -1.88377,3.188979 -1.84991,3.393735 0.93821,5.671328 5.65501,4.619543 2.3649,5.224999 -30.64509,5.639421 -30.69642,0.385375 -30.69642,0.385375 -34.50172,-3.740176 -4.54866,-4.931485 -9.49338,-5.641731 -10.08883,-1.449132 -0.32118,2.2615 -0.99397,2.614894 -4.33983,2.279551 -2.497288,-0.250292 -4.771035,0.337368 -6.15647,1.591166 -4.435683,4.014238 -6.533817,1.915299 -6.569276,-6.571788 -0.03219,-7.707224 -0.03219,-7.707224 -6.542357,-9.287747 -7.827497,-1.900344 -8.414337,-2.392986 -8.550383,-7.177895 -0.121437,-4.271129 -1.388845,-4.570066 -8.66545,-2.043871 -4.681353,1.62521 -6.692975,4.480797 -4.229179,6.003505 0.690459,0.426729 1.25538,2.617771 1.25538,4.868986 0,4.833466 1.569668,5.244671 4.272703,1.119317 2.485056,-3.792676 12.856128,-4.553677 12.158261,-0.892139 -0.218217,1.144912 -1.6366,2.258072 -3.151965,2.473689 -1.809559,0.257476 -2.532676,0.97195 -2.106841,2.081659 0.378807,0.987155 -0.07793,1.689629 -1.098575,1.689629 -0.96082,0 -1.746946,0.518484 -1.746946,1.152186 0,0.633704 0.869539,0.818513 1.932308,0.410691 1.714022,-0.657731 1.697028,-0.382413 -0.150435,2.437172 -1.753145,2.675637 -2.377438,2.940072 -3.944926,1.670968 -1.455169,-1.178164 -1.666936,-1.18271 -0.968882,-0.0208 1.063297,1.769861 -1.981016,2.017292 -4.992212,0.405748 -4.708969,-2.520163 -10.047112,1.691679 -9.279272,7.321429 0.605663,4.440684 3.360235,59.708683 3.54911,71.209723 0.03879,2.36201 -0.672815,6.5469 -1.581345,9.29977 -1.397197,4.23355 -1.41245,8.24794 -0.09893,26.03819 2.543011,34.4426 3.891761,70.55931 3.650658,97.75698 -0.14556,16.41986 0.432032,31.74885 1.613545,42.82271 3.611004,33.84449 3.732548,39.82956 0.88993,43.82164 -5.07,7.12017 -2.715985,15.60393 4.366852,15.73794 2.430361,0.046 5.489409,0.54364 6.79788,1.10592 3.115637,1.33884 2.523368,1.33623 10.705676,0.047 z m 12.787334,-30.57276 c -1.618555,-0.6531 -1.959662,-7.54703 -0.608451,-12.29692 0.797204,-2.8024 0.881969,-2.73462 1.470663,1.17602 0.724622,4.81362 4.035737,6.21041 6.624277,2.79444 2.66149,-3.51225 2.15619,0.67252 -0.63372,5.24832 -2.27252,3.72719 -3.678798,4.35887 -6.852769,3.07814 z m 73.453149,-7.24146 c 1.7e-4,-0.49068 -7.22065,-0.82089 -16.04628,-0.7338 -16.0466,0.15834 -16.0466,0.15834 -15.29059,-2.85384 0.52809,-2.10405 0.34508,-2.75821 -0.607,-2.1698 -0.74965,0.46332 -1.363,1.84625 -1.363,3.07321 0,1.99826 -1.02304,2.23453 -9.81354,2.26648 -13.52967,0.0491 -13.37028,0.22002 -13.44246,-14.40844 -0.0858,-17.37742 -1.52911,-31.23938 -4.1847,-40.18909 -1.85586,-6.25448 -2.43271,-13.07321 -3.01896,-35.68558 -0.39861,-15.37454 -0.80075,-30.36249 -0.89367,-33.30655 -0.23384,-7.4091 -3.29828,-7.2063 -9.617417,0.63647 -5.52759,6.86036 -15.273513,15.42205 -17.55519,15.42205 -0.849638,0 -2.547813,2.14113 -3.773725,4.75807 -2.228931,4.75808 -2.228931,4.75808 -3.261434,1.18952 -1.191253,-4.11723 -0.0038,-22.00611 1.460739,-22.00611 0.539639,0 0.66757,0.81722 0.284289,1.81603 -0.417513,1.08802 0.57572,2.99541 2.477658,4.75808 2.875196,2.66463 5.430998,3.7956 5.430998,2.40326 0,-1.51763 -2.894803,-6.59833 -3.7595,-6.59833 -0.549213,0 -0.998578,-1.07056 -0.998578,-2.37904 0,-1.30847 0.600826,-2.37904 1.335164,-2.37904 0.959823,0 0.943515,-0.47193 -0.05805,-1.67867 -1.492951,-1.7989 11.419863,-14.05717 18.861425,-17.90535 1.930556,-0.99833 4.467031,-3.4351 5.636631,-5.41506 1.16958,-1.97996 4.27934,-4.64863 6.91058,-5.93039 2.63123,-1.28175 10.75805,-8.09525 18.05961,-15.1411 7.30154,-7.04585 16.77426,-15.7547 21.05049,-19.353 4.27621,-3.59829 8.13196,-7.55703 8.5683,-8.79718 1.10014,-3.12659 10.0113,-12.61417 11.84784,-12.61417 0.82803,0 1.81362,-0.80292 2.19021,-1.78428 1.04194,-2.71525 3.13297,-2.12871 3.18055,0.89214 0.0416,2.64267 0.0635,2.63891 1.74212,-0.29738 2.12182,-3.71172 2.22683,-5.14685 0.29738,-4.06399 -0.81779,0.45896 1.18844,-1.93755 4.4583,-5.325597 3.26986,-3.388049 7.85342,-7.071741 10.1857,-8.185988 2.35602,-1.125595 6.05746,-4.625566 8.32904,-7.875702 4.76737,-6.821054 8.78285,-8.929305 10.58689,-5.558434 0.89109,1.665012 0.60335,2.941543 -1.1717,5.198165 -2.8421,3.613129 -2.96766,4.56145 -0.47746,3.605873 1.03148,-0.395812 2.40967,-2.118689 3.06266,-3.828599 1.09519,-2.867877 1.30584,-2.947535 2.71644,-1.027293 1.79733,2.446699 3.05118,2.686494 3.05118,0.583519 0,-0.82398 -1.07057,-2.166729 -2.37904,-2.983882 -2.96173,-1.849628 -3.20042,-4.442102 -0.29738,-3.229967 1.14491,0.478048 3.68751,1.249549 5.65021,1.714445 2.00731,0.475462 3.41717,1.515763 3.22254,2.377819 -0.21029,0.931359 0.35439,1.263775 1.43946,0.847393 2.14384,-0.822668 20.88518,18.931848 20.90186,22.031818 0.006,1.1063 0.5461,2.34228 1.20033,2.74662 0.65424,0.40434 1.18952,-0.1358 1.18952,-1.20032 0,-1.65137 0.52587,-1.56103 3.58255,0.61552 1.97039,1.40305 3.3159,2.98243 2.99,3.50975 -0.32589,0.52731 0.46003,2.29688 1.74651,3.93236 1.28648,1.63549 2.87179,4.37483 3.52291,6.08741 0.65113,1.71259 1.7324,3.1138 2.40283,3.1138 1.60285,0 1.55206,-1.57013 -0.10432,-3.22658 -0.72785,-0.72783 -1.11767,-1.94039 -0.86627,-2.69455 0.67349,-2.0205 5.74382,2.73808 5.82398,5.4659 0.0362,1.23172 1.75567,3.57771 3.82106,5.2133 3.67469,2.91001 3.59031,1.69827 -0.20186,-2.89903 -1.04541,-1.26735 0.37422,-0.50865 3.15472,1.68599 3.52187,2.7798 5.08082,4.92218 5.13907,7.06234 0.0689,2.53192 0.23562,2.68579 0.94815,0.87512 0.80376,-2.04248 0.98072,-2.05701 2.51633,-0.20672 1.29902,1.56523 1.33541,2.18578 0.17038,2.90581 -1.5819,0.97766 3.07487,4.77268 6.05322,4.93303 1.52261,0.082 6.61886,5.73755 24.63477,27.33843 5.21207,6.24922 10.97761,12.11179 12.8123,13.02794 4.53831,2.26618 9.93387,7.26916 9.17092,8.50365 -1.10911,1.79458 0.7769,3.62004 2.3722,2.29606 6.82449,-5.66383 16.0856,14.0509 14.06276,29.93632 -1.29768,10.19082 -12.95867,1.42027 -14.48361,-10.89353 -0.68937,-5.56666 -3.39566,-7.41349 -6.09586,-4.15995 -1.11727,1.34622 -0.89596,1.67139 1.13756,1.67139 1.45116,0 2.52469,0.7587 2.52469,1.78428 0,2.65175 -2.02674,2.19059 -7.95431,-1.80988 -17.53675,-11.83541 -23.76097,-11.3055 -19.97987,1.70103 1.47008,5.0569 1.82243,9.93184 1.42866,19.76649 -0.30473,7.61065 -0.0623,13.05414 0.58127,13.05414 0.60718,0 0.98512,3.66394 0.83988,8.14209 -0.14524,4.47813 0.0159,8.62658 0.35809,9.21877 8.3684,14.48221 5.05492,58.16571 -4.41695,58.23124 -5.4718,0.0378 -9.34622,0.70422 -11.30044,1.94355 -3.25143,2.06199 -18.29622,3.94701 -20.52217,2.5713 -0.76283,-0.47146 -3.58945,-0.72174 -6.28139,-0.5562 -2.93054,0.18021 -5.41347,-0.32652 -6.188,-1.26288 -1.43606,-1.73611 -0.63985,-8.10621 1.01321,-8.10621 1.77861,0 1.1636,-2.62909 -0.98202,-4.198 -1.73475,-1.26848 -1.08745,-1.55023 4.41391,-1.92125 5.79473,-0.3908 6.73911,-0.1067 9.33711,2.80913 1.5897,1.78416 3.38246,2.93979 3.98392,2.56807 0.60146,-0.37173 0.12478,-1.39118 -1.05928,-2.26545 -1.90864,-1.4093 -1.55574,-1.5825 3.11132,-1.52699 3.6486,0.0434 5.72089,-0.562 6.75238,-1.97265 1.01052,-1.38197 2.30398,-1.77636 4.02963,-1.22867 2.18187,0.69251 2.37868,0.49742 1.39117,-1.37901 -0.63262,-1.20209 -1.73443,-7.53846 -2.44848,-14.08081 -2.88395,-26.42384 -3.25088,-27.17906 -13.84829,-28.50312 -5.52777,-0.69066 -6.96167,-0.44445 -9.62843,1.65323 -3.22215,2.53455 -5.80401,3.14219 -6.68181,1.5726 -0.27441,-0.49068 -0.32351,-0.19096 -0.10908,0.66606 0.22103,0.88346 -1.80884,2.53077 -4.68772,3.80423 -2.79265,1.23533 -6.32449,3.57336 -7.84853,5.19562 -1.63598,1.74142 -3.51644,2.66351 -4.59094,2.25119 -1.21843,-0.46756 -1.62588,-0.1443 -1.23276,0.97806 0.62406,1.78167 -8.50419,12.6075 -10.16453,12.05482 -0.53931,-0.17951 -0.6207,0.25587 -0.18086,0.96755 0.81104,1.31229 -2.5628,5.90211 -4.33845,5.90211 -1.24015,0 0.17474,-3.90111 1.81009,-4.99078 0.68301,-0.4551 0.84313,-1.22617 0.35582,-1.71347 -0.48731,-0.48731 -1.60974,-0.11491 -2.49429,0.82746 -2.10923,2.2472 -3.5112,8.25583 -1.92629,8.25583 1.76378,0 1.4905,5.94265 -0.27472,5.97405 -2.91987,0.052 -7.82808,4.67446 -4.99599,4.70517 1.34119,0.0145 3.08086,-0.61588 3.86594,-1.40097 0.80974,-0.80974 1.42743,-0.90812 1.42743,-0.22735 0,0.66004 0.84662,2.23913 1.88139,3.50908 1.60641,1.97155 1.78572,2.00477 1.22684,0.22736 -0.49586,-1.57702 0.022,-2.08166 2.13629,-2.08166 3.37114,0 6.99715,3.63883 4.47232,4.48811 -1.12052,0.37691 -0.62062,1.53781 1.70944,3.96988 3.84357,4.01182 6.8289,4.72662 3.1774,0.76078 -2.42515,-2.63389 -3.40392,-9.21877 -1.37028,-9.21877 0.57246,0 1.04083,1.03897 1.04083,2.30883 0,2.94932 2.20986,4.37938 2.9822,1.92988 0.3225,-1.02282 0.84436,-2.68125 1.15969,-3.68541 0.51521,-1.64063 0.85649,-1.64021 3.36614,0.005 3.01371,1.97466 4.61075,1.40927 3.58318,-1.26853 -0.73318,-1.91064 0.6025,-2.13514 3.14313,-0.52829 1.08303,0.68498 2.27058,0.66656 3.13226,-0.0485 1.89977,-1.57666 3.31836,2.2704 1.60048,4.34033 -0.71269,0.85874 -1.1234,3.33349 -0.91266,5.49945 0.32879,3.37962 -0.02,3.99509 -2.45934,4.33998 -2.37317,0.33552 -2.73519,-0.008 -2.1926,-2.0833 0.35744,-1.36685 0.20151,-2.20807 -0.3465,-1.86938 -0.54802,0.3387 -1.33262,0.0719 -1.74356,-0.59311 -0.41101,-0.66555 -2.08544,-1.20957 -3.72103,-1.20957 -1.63559,0 -2.67404,0.48503 -2.30765,1.07785 0.36638,0.59282 1.73617,0.79803 3.044,0.45603 1.82437,-0.47708 2.37785,-0.0358 2.37785,1.89595 0,2.34021 -0.62915,2.51777 -8.92139,2.51777 -8.03797,0 -8.9214,-0.22862 -8.9214,-2.30883 0,-1.26986 -0.53528,-2.63966 -1.18952,-3.04401 -0.67465,-0.41695 -1.18952,0.58242 -1.18952,2.30884 0,3.50218 -2.76691,4.02453 -6.47233,1.2219 -3.20596,-2.42488 -6.25459,-2.39764 -4.23335,0.0378 1.79614,2.16421 1.09791,2.20735 -5.21483,0.32212 -2.69284,-0.80419 -6.16707,-2.96793 -7.72051,-4.80832 -3.64515,-4.31847 -4.75075,-3.27912 -1.44712,1.36041 2.91051,4.08744 1.97498,5.39807 -2.24213,3.14114 -2.45368,-1.31317 -3.11549,-1.2864 -4.17978,0.1691 -1.34279,1.83638 -5.85032,0.9683 -4.69326,-0.90385 0.95045,-1.53785 -0.81592,-1.23818 -4.24035,0.7194 -3.44435,1.96897 -11.40992,2.3423 -12.4956,0.58564 -0.45926,-0.74309 -1.42239,-0.51706 -2.53421,0.59476 -1.90813,1.90813 -4.00272,2.37982 -4.00218,0.90126 z m -7.13744,-2.08166 c 0,-0.32712 -0.26764,-0.59476 -0.59476,-0.59476 -0.32712,0 -0.59476,0.26764 -0.59476,0.59476 0,0.32712 0.26764,0.59476 0.59476,0.59476 0.32712,0 0.59476,-0.26764 0.59476,-0.59476 z m 105.86723,-1.25972 c 0,-1.01997 -0.53528,-1.52366 -1.18952,-1.11932 -0.65423,0.40434 -1.18952,1.23886 -1.18952,1.85449 0,0.61562 0.53529,1.11931 1.18952,1.11931 0.65424,0 1.18952,-0.83452 1.18952,-1.85448 z m 18.75626,-0.52456 c -1.50091,-2.40333 -3.2925,-3.18006 -3.2925,-1.42742 0,1.23595 2.57733,3.80646 3.81653,3.80646 0.52894,0 0.29313,-1.07057 -0.52403,-2.37904 z m -155.551,0.59476 c 0,-0.32712 -0.26764,-0.59476 -0.59476,-0.59476 -0.32712,0 -0.59476,0.26764 -0.59476,0.59476 0,0.32712 0.26764,0.59476 0.59476,0.59476 0.32712,0 0.59476,-0.26764 0.59476,-0.59476 z m 15.64218,-1.18952 c 0,-0.62152 -0.57543,-1.32185 -1.27873,-1.55628 -0.7033,-0.23444 -1.27873,0.46589 -1.27873,1.55628 0,1.0904 0.57543,1.79073 1.27873,1.55629 0.7033,-0.23443 1.27873,-0.93476 1.27873,-1.55629 z m 30.74908,1.18952 c 0,-0.32712 -0.26764,-0.59476 -0.59476,-0.59476 -0.32712,0 -0.59476,0.26764 -0.59476,0.59476 0,0.32712 0.26764,0.59476 0.59476,0.59476 0.32712,0 0.59476,-0.26764 0.59476,-0.59476 z m 102.33414,-1.71803 c -0.68078,-1.27204 -1.85288,-2.69294 -2.60469,-3.15758 -0.91594,-0.56609 -1.04896,-0.29362 -0.40315,0.82588 2.55124,4.42264 5.24405,6.51011 3.00784,2.3317 z m -112.60965,-0.66101 c -0.37659,-0.98135 -0.89506,-1.78428 -1.15219,-1.78428 -0.25711,0 -0.46749,0.80293 -0.46749,1.78428 0,0.98136 0.51848,1.78428 1.15219,1.78428 0.63369,0 0.84407,-0.80292 0.46749,-1.78428 z m 17.41263,1.25973 c 0,-0.28851 -0.61799,-0.9065 -1.37331,-1.37331 -0.85087,-0.52587 -1.05042,-0.32631 -0.52456,0.52455 0.84746,1.37122 1.89787,1.84098 1.89787,0.84876 z m 87.86591,-5.19058 c -1.35801,-2.74479 -2.9673,-4.99054 -3.57619,-4.99054 -1.10666,0 0.1706,2.95535 3.4862,8.06638 2.75981,4.2543 2.81324,2.42834 0.09,-3.07584 z m 21.56988,5.26602 c 0,-0.24701 -0.80292,-1.11547 -1.78428,-1.92993 -1.46133,-1.21279 -1.78428,-1.13151 -1.78428,0.44912 0,1.06145 0.80293,1.92992 1.78428,1.92992 0.98136,0 1.78428,-0.2021 1.78428,-0.44911 z m -130.84714,-1.26496 c 0,-0.28851 -0.61799,-0.9065 -1.37331,-1.37331 -0.85087,-0.52587 -1.05042,-0.32631 -0.52456,0.52455 0.84746,1.37122 1.89787,1.84098 1.89787,0.84876 z m 146.3109,-1.25973 c 0,-0.32711 -0.26765,-0.59476 -0.59476,-0.59476 -0.32712,0 -0.59476,0.26765 -0.59476,0.59476 0,0.32712 0.26764,0.59476 0.59476,0.59476 0.32711,0 0.59476,-0.26764 0.59476,-0.59476 z M 133.854,309.59822 c 1.29315,-2.42689 1.2416,-2.52421 -0.55291,-1.04388 -1.08847,0.89791 -1.97903,2.1023 -1.97903,2.67642 0,1.81698 1.05704,1.13542 2.53194,-1.63254 z m 27.50917,1.18952 c 0.32373,-0.96005 2.99311,-1.49841 7.53364,-1.51938 3.86772,-0.0178 8.50426,-0.47736 10.30341,-1.02109 2.7269,-0.82413 3.29926,-0.62081 3.43998,1.22199 0.0928,1.21584 0.50825,0.0695 0.92313,-2.54746 0.41488,-2.61695 0.53795,-5.71844 0.2735,-6.89221 -0.82592,-3.66583 -17.18359,-19.07794 -24.87864,-23.44054 -4.03895,-2.28983 -7.36766,-4.96624 -7.39713,-5.9476 -0.041,-1.36674 -0.27847,-1.42997 -1.01453,-0.27017 -1.10882,1.7471 -7.70419,-0.55594 -13.17479,-4.60052 -2.68516,-1.98522 -3.71016,-2.12889 -7.00182,-0.98141 -6.74016,2.34963 -6.82832,3.71645 -1.66039,25.74467 1.26214,5.37992 2.0287,11.17374 1.70345,12.87519 -0.42125,2.20365 -0.11895,3.0046 1.051,2.7844 2.38536,-0.44896 11.64479,1.3746 12.29128,2.42065 0.30277,0.48988 3.50891,0.64535 7.12476,0.34549 5.30139,-0.43963 6.71767,-0.1715 7.31489,1.38485 0.88147,2.29707 2.46828,2.51903 3.16826,0.44314 z m 120.63136,0.69388 c -0.43616,-0.43615 -1.14987,-0.43615 -1.58603,0 -0.43615,0.43616 -0.0793,0.79301 0.79302,0.79301 0.87231,0 1.22916,-0.35685 0.79301,-0.79301 z m -66.21658,-4.181 c 0,-0.45825 -0.53529,-1.164 -1.18952,-1.56834 -0.65424,-0.40434 -1.15329,-2.44325 -1.10902,-4.53091 0.0762,-3.59529 0.14867,-3.6544 1.37129,-1.11931 1.66261,3.44735 3.09281,3.39277 4.44727,-0.16972 1.3834,-3.63862 0.29687,-7.85954 -2.02317,-7.85954 -4.8548,0 3.19662,-14.68613 10.9931,-20.05189 1.96271,-1.3508 6.13825,-4.88569 9.27899,-7.85533 3.14075,-2.96962 6.42073,-5.39932 7.28885,-5.39932 0.86813,0 2.17173,-0.71492 2.89691,-1.58869 0.72517,-0.87378 3.73477,-2.83144 6.688,-4.35033 5.802,-2.98408 6.82962,-5.33244 2.88173,-6.58546 -1.71647,-0.54479 -2.30419,-1.49163 -1.89564,-3.05395 0.61051,-2.33462 -1.03543,-3.25582 -1.78728,-1.0003 -0.48505,1.45516 -10.9096,-2.63656 -12.25233,-4.80913 -0.46329,-0.74961 0.0131,-2.30808 1.05848,-3.46329 2.97237,-3.28444 2.23048,-4.12931 -1.23341,-1.40462 -5.97275,4.69817 -17.51883,-5.81901 -11.69474,-10.65257 2.6682,-2.2144 8.88136,-2.474 8.88136,-0.37108 0,0.93397 0.86574,1.54084 1.92388,1.3486 1.05813,-0.19224 2.53016,0.67873 3.27118,1.93549 2.98135,5.0564 4.76914,6.64246 5.77598,5.12426 0.74217,-1.1191 1.31255,-1.03264 2.43365,0.3689 0.80537,1.0068 4.94364,2.83696 9.19618,4.06701 4.25253,1.23005 8.24039,2.68125 8.86192,3.22488 8.59849,7.52104 16.67829,0.1284 16.47088,-15.07007 -0.35475,-25.99574 -3.11485,-34.82454 -10.43703,-33.3851 -17.60186,3.46029 -37.39085,4.52368 -40.12278,2.15608 -4.15633,-3.60205 -17.64673,9.33514 -16.8939,16.2011 0.16974,1.54817 -0.15243,3.95695 -0.71594,5.35284 -1.02309,2.5343 -1.02469,2.5341 -1.09997,-0.13845 -0.0416,-1.47829 -0.74104,-2.54329 -1.5623,-2.37904 -1.58265,0.31653 -1.67421,-4.35175 -0.24292,-12.38502 0.64976,-3.64679 0.37412,-4.57087 -1.69346,-5.6774 -3.14524,-1.68328 -7.27518,0.62218 -7.29864,4.07432 -0.0258,3.79387 -1.35645,7.77031 -2.3871,7.13334 -0.51885,-0.32066 -0.66569,0.47874 -0.32633,1.77646 0.45895,1.75503 -0.19727,2.66907 -2.56155,3.56798 -1.74821,0.66466 -2.88159,1.68901 -2.51861,2.27632 0.36297,0.58731 -0.32105,2.27933 -1.52006,3.76005 -2.24003,2.76632 -4.94434,2.36688 -4.94434,-0.73032 0,-0.94274 -0.53529,-1.71407 -1.18952,-1.71407 -1.5399,0 -1.51323,1.93059 0.0674,4.88412 1.72621,3.22544 -1.59483,8.36998 -10.19282,15.78939 -6.60767,5.70193 -10.38439,-0.78996 -4.49992,-7.735 1.41801,-1.67361 1.32299,-2.01226 -0.71409,-2.54498 -2.86615,-0.74952 -3.69293,1.0889 -3.69293,8.2115 0,3.47421 -0.44174,5.05275 -1.2706,4.54048 -0.69885,-0.43191 -0.95436,-1.60948 -0.5678,-2.61682 0.88349,-2.30234 -0.31107,-6.25446 -1.89048,-6.25446 -0.65423,0 -0.84973,1.07057 -0.43443,2.37904 0.43315,1.36475 0.21375,2.37904 -0.5146,2.37904 -0.69833,0 -1.26968,-0.80293 -1.26968,-1.78428 0,-0.98135 -0.53529,-1.78428 -1.18952,-1.78428 -1.70555,0 -1.48464,0.99455 1.01605,4.57445 5.46824,7.82816 1.38084,13.26834 -9.96898,13.26834 -4.02612,0 -6.00741,4.8994 -2.93193,7.25017 1.6299,1.24583 3.60998,2.80063 4.40015,3.45509 0.79019,0.65446 2.56593,1.18994 3.9461,1.18994 1.84566,0 2.33668,0.5506 1.8564,2.08166 -0.68507,2.18384 4.78709,5.85172 5.5072,3.69137 0.68116,-2.04345 8.0702,1.45611 8.0702,3.82216 0,1.4977 0.58837,1.99955 1.79942,1.53483 2.46089,-0.94432 4.39972,0.86 14.24323,13.25513 10.02944,12.62925 13.22264,19.11592 6.34721,12.89375 -2.56829,-2.32428 -3.53436,-1.68672 -3.77595,2.49193 -0.0969,1.67761 -0.444,3.01193 -0.77112,2.96517 -0.67029,-0.0959 -8.92212,-10.00456 -11.22509,-13.47902 -1.34026,-2.02205 -1.44236,-1.8624 -0.95078,1.4869 0.30289,2.0637 1.2356,3.75218 2.0727,3.75218 2.15344,0 3.04604,3.01185 1.38621,4.67736 -2.29074,2.29853 3.66254,6.23294 8.39779,5.54993 4.31916,-0.623 6.6936,1.46795 2.8179,2.48147 -2.8274,0.73938 -3.39945,2.755 -0.78189,2.755 2.34261,0 5.38206,-4.58608 4.62358,-6.9763 -0.53378,-1.68208 -0.44122,-1.70383 0.68449,-0.16082 1.07322,1.47107 1.48292,1.50342 2.33392,0.18435 0.77408,-1.19984 1.21381,-0.87634 1.75844,1.29363 1.76628,7.03737 10.29409,11.54664 10.29409,5.4432 z m -0.36418,-11.25041 c -0.95034,-0.95035 0.12394,-2.80789 1.6239,-2.80789 0.61562,0 1.11931,0.80293 1.11931,1.78428 0,1.83949 -1.40358,2.36322 -2.74321,1.02361 z m -17.21394,-30.82904 c -2.93043,-2.05255 -3.1151,-2.69815 -1.50161,-5.24941 0.91031,-1.43939 1.64244,-1.12413 4.14365,1.78428 4.62951,5.38322 3.0514,7.45296 -2.64204,3.46513 z m 8.06196,-0.0734 c 0,-0.94498 -0.84847,-2.04373 -1.8855,-2.44167 -1.45596,-0.55869 -1.70503,-1.68552 -1.09332,-4.94623 0.66239,-3.53082 0.52001,-3.99683 -0.86894,-2.84409 -1.34529,1.11649 -2.1552,0.36169 -4.25953,-3.96965 -3.47786,-7.15848 -3.36766,-7.80402 2.29964,-13.47131 7.12332,-7.12333 15.92025,-6.64257 11.16797,0.61033 -1.09002,1.66358 -1.6313,3.37527 -1.20283,3.80372 0.42846,0.42846 1.2589,-0.0194 1.84544,-0.99534 3.30582,-5.50045 3.23571,-5.46366 6.72533,-3.52944 5.24842,2.90908 6.76846,6.77436 5.77885,14.69497 -0.92694,7.41901 -4.52484,12.81861 -6.93526,10.40819 -0.90694,-0.90694 -1.6547,-0.51208 -2.59049,1.36794 -1.56246,3.13902 -8.98136,4.22324 -8.98136,1.31258 z m 7.61259,-3.02598 c -0.40555,-0.6562 -1.37526,-0.54107 -2.36566,0.28089 -2.2609,1.87638 -2.11565,2.18277 0.68729,1.44979 1.30112,-0.34025 2.05638,-1.11906 1.67837,-1.73068 z m 7.85116,-2.0404 c 0,-0.57412 -0.80292,-1.71023 -1.78428,-2.52468 -2.16079,-1.7933 -2.36752,-5.94045 -0.29738,-5.96581 0.99127,-0.0121 0.89214,-0.40258 -0.29738,-1.17131 -2.75122,-1.77797 -3.37998,-1.44758 -3.78693,1.98992 -0.42669,3.60434 -3.35414,5.33405 -3.34286,1.97514 0.004,-1.19943 0.81654,-3.73245 1.80556,-5.62894 1.90503,-3.65296 1.43204,-5.62541 -0.81107,-3.3823 -3.56613,3.56613 -2.71863,13.37282 1.15568,13.37282 2.00734,0 3.98052,0.53528 4.38486,1.18952 0.9068,1.46722 2.9738,1.56846 2.9738,0.14564 z m -14.27423,-2.59489 c 0,-0.61562 -0.53528,-1.11931 -1.18952,-1.11931 -0.65424,0 -1.18952,0.83452 -1.18952,1.85448 0,1.01997 0.53528,1.52366 1.18952,1.11932 0.65424,-0.40434 1.18952,-1.23886 1.18952,-1.85449 z m -6.68324,-12.48153 c 0.4062,-1.05858 0.20679,-1.53605 -0.4675,-1.11931 -0.64674,0.3997 -1.1759,1.23043 -1.1759,1.84606 0,1.71104 0.85261,1.334 1.6434,-0.72675 z m 16.41747,-5.54879 c -0.85355,-0.85355 -1.40759,-0.92378 -1.40759,-0.17843 0,0.67606 0.35685,1.58604 0.79301,2.02219 0.43615,0.43616 1.06957,0.51645 1.4076,0.17843 0.33802,-0.33802 -0.0188,-1.248 -0.79302,-2.02219 z m -24.99008,18.91659 c -2.79817,-2.97851 -4.11636,-11.52353 -1.89977,-12.31509 2.19609,-0.78422 6.8853,11.24897 5.35101,13.73149 -0.57059,0.92324 -1.68164,0.46726 -3.45124,-1.4164 z M 170.5762,238.52443 c 0,-0.65424 0.53529,-1.18952 1.18952,-1.18952 0.65424,0 1.18952,0.53528 1.18952,1.18952 0,0.65423 -0.53528,1.18952 -1.18952,1.18952 -0.65423,0 -1.18952,-0.53529 -1.18952,-1.18952 z m 53.92111,-17.62787 c -3.41132,-2.68228 -4.64201,-10.52607 -2.34593,-14.95178 1.94984,-3.75831 5.02604,-0.70006 4.65311,4.62594 -0.13313,1.90131 -0.0451,1.96103 0.43826,0.29738 0.33266,-1.14491 1.0436,-2.08166 1.57987,-2.08166 1.50383,0 2.45913,3.4034 1.17761,4.19542 -0.62566,0.38669 -1.14577,2.1435 -1.15578,3.90404 -0.0289,5.082 -1.38887,6.33668 -4.34714,4.01066 z m 7.22556,-3.96728 c -0.52586,-0.85086 -0.32631,-1.05041 0.52456,-0.52455 1.37121,0.84746 1.84098,1.89786 0.84875,1.89786 -0.2885,0 -0.90649,-0.61799 -1.37331,-1.37331 z m 60.80754,91.68715 c 0.43094,-1.35777 0.45426,-2.79794 0.0519,-3.20037 -1.15345,-1.15345 -4.61749,2.91225 -3.7194,4.36539 1.25668,2.03334 2.80894,1.54026 3.66756,-1.16502 z m -3.00226,0.0896 c 0,-0.87231 0.35686,-1.22917 0.79302,-0.79302 0.43615,0.43616 0.43615,1.14987 0,1.58603 -0.43616,0.43615 -0.79302,0.0793 -0.79302,-0.79301 z m 14.48328,-3.55646 c -2.40752,-5.73217 -4.17794,-6.00284 -6.66428,-1.01886 -2.29233,4.5951 -2.30542,4.28745 0.21026,4.94486 7.28299,1.90326 8.5728,1.11866 6.45402,-3.926 z m -181.41251,1.57392 c -0.43616,-0.43615 -0.79301,-0.0793 -0.79301,0.79302 0,0.87231 0.35685,1.22916 0.79301,0.79301 0.43615,-0.43616 0.43615,-1.14987 0,-1.58603 z m 67.43976,-0.99126 c -0.746,-1.94407 -2.8092,-2.45368 -2.8092,-0.69388 0,0.90284 0.83366,1.51748 3.23385,2.38424 0.14302,0.0516 -0.0481,-0.70901 -0.42465,-1.69036 z m -62.0671,-2.04201 c -0.85355,-0.85356 -1.4076,-0.92379 -1.4076,-0.17843 0,1.58774 1.40674,2.99448 2.20061,2.20061 0.33803,-0.33802 -0.0188,-1.248 -0.79301,-2.02218 z m 76.72374,0.0347 c -0.37972,-0.94892 -0.66158,-0.66706 -0.71866,0.71867 -0.0516,1.25395 0.22949,1.95651 0.62476,1.56125 0.39527,-0.39527 0.43752,-1.42124 0.0939,-2.27992 z m -76.39155,-5.79659 c -0.83563,-1.35208 -4.11883,-1.49647 -4.11883,-0.18114 0,0.515 1.08215,1.0179 2.40475,1.11752 1.32261,0.0997 2.09395,-0.32174 1.71408,-0.93638 z m 171.93006,-2.97201 c 0,-1.01997 -0.53528,-1.52366 -1.18952,-1.11932 -0.65424,0.40434 -1.18952,1.23886 -1.18952,1.85449 0,0.61562 0.53528,1.11931 1.18952,1.11931 0.65424,0 1.18952,-0.83452 1.18952,-1.85448 z m -5.59599,-3.79574 c -0.95312,-6.17661 -1.54113,-6.36571 -1.54113,-0.49563 0,2.72598 0.50164,4.95633 1.11474,4.95633 0.61749,0 0.80769,-1.98974 0.42639,-4.4607 z m 13.18698,1.42512 c 0.40621,-1.05858 0.2068,-1.53605 -0.46749,-1.11931 -0.64674,0.3997 -1.1759,1.23043 -1.1759,1.84606 0,1.71104 0.85261,1.334 1.64339,-0.72675 z m -129.33246,-9.40307 c -0.3874,-1.00957 -1.27529,-1.83558 -1.97308,-1.83558 -0.87972,0 -0.86161,0.76065 0.059,2.48092 1.47655,2.75896 3.02062,2.23837 1.91403,-0.64534 z m 56.3179,-5.40414 c 0,-0.65424 -0.23605,-1.18952 -0.52456,-1.18952 -0.2885,0 -0.85538,0.53528 -1.25972,1.18952 -0.40434,0.65424 -0.16829,1.18952 0.52455,1.18952 0.69285,0 1.25973,-0.53528 1.25973,-1.18952 z m 60.01993,-1.10732 c 0.37641,-0.60904 0.14035,-1.44356 -0.52456,-1.85449 -0.6649,-0.41093 -1.20892,0.0873 -1.20892,1.10732 0,2.08943 0.71379,2.39708 1.73348,0.74717 z m 5.40364,-1.34193 c 0,-0.61562 -0.53528,-1.11931 -1.18952,-1.11931 -0.65424,0 -1.18952,0.83452 -1.18952,1.85449 0,1.01996 0.53528,1.52365 1.18952,1.11931 0.65424,-0.40434 1.18952,-1.23886 1.18952,-1.85449 z m -62.45739,-4.71187 c -1.18215,-3.72461 -2.72026,-2.74099 -2.36263,1.5109 0.44332,5.27077 0.49021,5.34419 1.8842,2.9498 0.67424,-1.15812 0.88953,-3.16543 0.47843,-4.4607 z m -74.33735,4.25753 c 0,-0.28851 -0.61799,-0.9065 -1.37331,-1.37332 -0.85087,-0.52586 -1.05042,-0.32631 -0.52456,0.52456 0.84746,1.37122 1.89787,1.84098 1.89787,0.84876 z m 20.22183,-0.0702 c 0,-0.32711 -0.26764,-0.59476 -0.59476,-0.59476 -0.32712,0 -0.59476,0.26765 -0.59476,0.59476 0,0.32712 0.26764,0.59476 0.59476,0.59476 0.32712,0 0.59476,-0.26764 0.59476,-0.59476 z m 48.53239,-0.83266 c 0.78509,-0.78508 1.42743,-1.85565 1.42743,-2.37904 0,-1.75264 -1.7916,-0.9759 -3.29251,1.42743 -1.62661,2.60461 -0.40911,3.22581 1.86508,0.95161 z m -65.18566,-0.35688 c 0,-0.32712 -0.26765,-0.59476 -0.59476,-0.59476 -0.32712,0 -0.59476,0.26764 -0.59476,0.59476 0,0.32712 0.26764,0.59476 0.59476,0.59476 0.32711,0 0.59476,-0.26764 0.59476,-0.59476 z m 9.51615,-1.18952 c 0,-0.32712 -0.26764,-0.59476 -0.59476,-0.59476 -0.32712,0 -0.59476,0.26764 -0.59476,0.59476 0,0.32712 0.26764,0.59476 0.59476,0.59476 0.32712,0 0.59476,-0.26764 0.59476,-0.59476 z m 120.14147,-1.18952 c 0,-0.32712 -0.26764,-0.59476 -0.59476,-0.59476 -0.32712,0 -0.59476,0.26764 -0.59476,0.59476 0,0.32712 0.26764,0.59476 0.59476,0.59476 0.32712,0 0.59476,-0.26764 0.59476,-0.59476 z m -130.84714,-3.00666 c 0,-0.5951 -0.79986,-0.77506 -1.77745,-0.39992 -0.9776,0.37514 -1.47589,1.17 -1.10733,1.76635 0.77088,1.24731 2.88478,0.24602 2.88478,-1.36643 z m -8.32664,-1.15666 c 0,-0.65423 -0.56688,-1.18952 -1.25972,-1.18952 -0.69285,0 -0.9289,0.53529 -0.52456,1.18952 0.40434,0.65424 0.97122,1.18952 1.25973,1.18952 0.2885,0 0.52455,-0.53528 0.52455,-1.18952 z m 14.49231,-1.44725 c -0.85355,-0.85355 -1.4076,-0.92378 -1.4076,-0.17843 0,1.58775 1.40674,2.99449 2.20062,2.20061 0.33802,-0.33801 -0.0188,-1.24799 -0.79302,-2.02218 z m 72.34261,-0.33703 c 0,-0.98135 -0.53528,-1.78427 -1.18952,-1.78427 -0.65423,0 -1.18952,0.80292 -1.18952,1.78427 0,0.98136 0.53529,1.78428 1.18952,1.78428 0.65424,0 1.18952,-0.80292 1.18952,-1.78428 z m 54.34095,-3.19683 c -0.37971,-0.94891 -0.66158,-0.66706 -0.71866,0.71867 -0.0516,1.25395 0.2295,1.95651 0.62476,1.56125 0.39527,-0.39528 0.43752,-1.42124 0.0939,-2.27992 z M 156.30197,260.9849 c 0,-0.65424 -0.53528,-0.8587 -1.18952,-0.45436 -0.65423,0.40434 -1.18952,1.27044 -1.18952,1.92467 0,0.65424 0.53529,0.85871 1.18952,0.45437 0.65424,-0.40435 1.18952,-1.27045 1.18952,-1.92468 z m 105.79595,-6.48786 c -2.15992,-2.60253 -2.61046,-1.28516 -0.86821,2.53865 1.17244,2.57323 1.62145,2.87289 1.92705,1.2861 0.21913,-1.13787 -0.25734,-2.85901 -1.05884,-3.82475 z m 25.83899,1.5728 c -0.32998,-0.8178 -0.59998,-0.14869 -0.59998,1.4869 0,1.63559 0.27,2.30469 0.59998,1.4869 0.32999,-0.8178 0.32999,-2.15601 0,-2.9738 z m 5.1598,3.27118 c 0,-0.32712 -0.26764,-0.59476 -0.59476,-0.59476 -0.32711,0 -0.59476,0.26764 -0.59476,0.59476 0,0.32712 0.26765,0.59476 0.59476,0.59476 0.32712,0 0.59476,-0.26764 0.59476,-0.59476 z m -8.70358,-9.14443 c -0.37972,-0.94892 -0.66159,-0.66706 -0.71866,0.71867 -0.0516,1.25394 0.22949,1.95651 0.62476,1.56124 0.39526,-0.39527 0.43752,-1.42124 0.0939,-2.27991 z m 12.27214,2.07752 c 0,-0.28851 -0.61799,-0.9065 -1.37331,-1.37332 -0.85086,-0.52586 -1.05042,-0.32631 -0.52455,0.52456 0.84746,1.37122 1.89786,1.84098 1.89786,0.84876 z m -2.8843,-15.84097 c -1.43518,-1.43519 -2.1191,0.92967 -1.19079,4.11755 0.96871,3.32657 0.96871,3.32657 1.42188,-0.0533 0.24925,-1.85896 0.14526,-3.68784 -0.23109,-4.0642 z m -140.4528,2.09129 c 0.40434,-0.65424 0.1683,-1.18952 -0.52455,-1.18952 -0.69285,0 -1.25973,0.53528 -1.25973,1.18952 0,0.65423 0.23605,1.18952 0.52456,1.18952 0.2885,0 0.85538,-0.53529 1.25972,-1.18952 z m -10.11091,-4.48147 c 5.561,-1.74616 11.1065,-3.05389 12.32335,-2.90609 1.46124,0.17749 1.99662,-0.29366 1.57682,-1.38762 -0.39098,-1.0189 1.37548,-3.10062 4.58982,-5.40899 15.01662,-10.78411 32.13897,-34.58613 24.88008,-34.58613 -1.00742,0 -3.81766,-1.00304 -6.24498,-2.22897 -8.33243,-4.20837 -28.91697,-2.05819 -46.90777,4.89976 -12.2539,4.7392 -11.81047,3.81915 -11.71992,24.31713 0.10717,24.25654 -0.10516,24.08574 21.5026,17.30091 z m -11.05075,-9.34482 c -1.12754,-1.12754 1.42712,-4.01651 3.55174,-4.01651 2.28865,0 1.48122,4.02971 -0.8993,4.48817 -1.00574,0.19369 -2.19934,-0.0186 -2.65244,-0.47166 z m -2.43047,-7.18856 c -2.76216,-2.76216 1.33257,-7.47956 5.758,-6.63358 3.11675,0.5958 3.11675,0.5958 -0.1554,4.0112 -3.3998,3.54862 -4.26935,3.95563 -5.6026,2.62238 z m 33.70305,19.30077 c 0,-0.2885 -0.61799,-0.90649 -1.37331,-1.37331 -0.85087,-0.52586 -1.05042,-0.32631 -0.52456,0.52455 0.84746,1.37122 1.89787,1.84099 1.89787,0.84876 z m 138.77728,-2.6475 c -0.43616,-0.43615 -1.14988,-0.43615 -1.58604,0 -0.43615,0.43616 -0.0793,0.79302 0.79302,0.79302 0.87231,0 1.22917,-0.35686 0.79302,-0.79302 z m -7.13712,-3.56856 c -0.43616,-0.43615 -0.79302,-0.0793 -0.79302,0.79302 0,0.87231 0.35686,1.22917 0.79302,0.79302 0.43615,-0.43617 0.43615,-1.14988 0,-1.58604 z m 7.53362,-1.51581 c 0,-0.61563 -0.53528,-1.45015 -1.18952,-1.85449 -0.65424,-0.40434 -1.18952,0.0993 -1.18952,1.11931 0,1.01997 0.53528,1.85449 1.18952,1.85449 0.65424,0 1.18952,-0.50369 1.18952,-1.11931 z m -68.19911,-3.24227 c -0.43617,-0.43615 -0.79302,-0.0793 -0.79302,0.79302 0,0.87231 0.35685,1.22917 0.79302,0.79302 0.43614,-0.43616 0.43614,-1.14987 0,-1.58604 z m 64.28589,-0.3965 c 0.34217,-1.30847 1.09499,-2.37904 1.67291,-2.37904 0.57793,0 1.05079,-0.86847 1.05079,-1.92992 0,-1.47964 -0.37245,-1.62083 -1.59635,-0.60509 -0.87798,0.72867 -2.02184,0.92803 -2.54188,0.44303 -0.52006,-0.48499 -0.67696,-0.0789 -0.34867,0.90246 0.32828,0.98136 0.11502,2.72103 -0.47377,3.86594 -0.71254,1.38542 -0.62154,2.08166 0.27211,2.08166 0.7385,0 1.62268,-1.07057 1.96486,-2.37904 z m 7.48178,0.52456 c 0,-1.01997 -0.53529,-1.52366 -1.18952,-1.11932 -0.65424,0.40434 -1.18952,1.23886 -1.18952,1.85449 0,0.61562 0.53528,1.11931 1.18952,1.11931 0.65423,0 1.18952,-0.83452 1.18952,-1.85448 z m -118.71898,-6.17478 c -0.34466,-1.79914 -0.85621,-2.58441 -1.13678,-1.74503 -0.50595,1.51366 0.39917,5.01621 1.29628,5.01621 0.25693,0 0.18515,-1.47203 -0.1595,-3.27118 z m 160.35216,-0.49563 c 0,-1.41751 -0.37234,-2.20494 -0.82744,-1.74985 -1.28565,1.28565 -1.46617,4.32714 -0.25683,4.32714 0.59635,0 1.08427,-1.15978 1.08427,-2.57729 z m -171.29081,0.19825 c 0,-0.65423 -0.23605,-1.18952 -0.52455,-1.18952 -0.28851,0 -0.85539,0.53529 -1.25973,1.18952 -0.40434,0.65424 -0.16829,1.18952 0.52456,1.18952 0.69284,0 1.25972,-0.53528 1.25972,-1.18952 z m 115.38339,0 c 0,-0.65423 -0.53528,-1.18952 -1.18952,-1.18952 -0.65423,0 -1.18952,0.53529 -1.18952,1.18952 0,0.65424 0.53529,1.18952 1.18952,1.18952 0.65424,0 1.18952,-0.53528 1.18952,-1.18952 z m 13.55221,-1.88157 c 1.01373,-2.64174 0.89855,-4.06602 -0.32882,-4.06602 -0.57797,0 -1.30666,1.33821 -1.61933,2.9738 -0.62623,3.27594 0.80275,4.0771 1.94815,1.09222 z M 188.419,212.81102 c 0,-0.25081 -1.07057,-0.45602 -2.37904,-0.45602 -1.30847,0 -2.37904,0.48517 -2.37904,1.07815 0,0.59299 1.07057,0.79821 2.37904,0.45603 1.30847,-0.34218 2.37904,-0.82735 2.37904,-1.07816 z m 153.44801,-1.05078 c 0,-0.98136 -0.53528,-1.78428 -1.18952,-1.78428 -0.65423,0 -1.18952,0.80292 -1.18952,1.78428 0,0.98135 0.53529,1.78428 1.18952,1.78428 0.65424,0 1.18952,-0.80293 1.18952,-1.78428 z m 7.13712,-1.18952 c 0,-0.98136 -0.53528,-1.78428 -1.18952,-1.78428 -0.65424,0 -1.18952,0.80292 -1.18952,1.78428 0,0.98135 0.53528,1.78428 1.18952,1.78428 0.65424,0 1.18952,-0.80293 1.18952,-1.78428 z m -58.7573,-2.65164 c -1.20917,-1.20916 -2.20686,0.61128 -1.21476,2.21652 0.74943,1.21262 1.02962,1.21356 1.43253,0.005 0.2755,-0.82646 0.17749,-1.82607 -0.21777,-2.22133 z m -97.06975,-0.91692 c -2.98101,-3.17314 -5.27389,-3.93654 -4.46589,-1.4869 0.41618,1.26175 5.16908,4.38807 6.75489,4.44316 0.27761,0.01 -0.75244,-1.32067 -2.289,-2.95626 z m 101.90217,0.99126 c -0.43616,-0.43615 -0.79302,-0.0793 -0.79302,0.79302 0,0.87231 0.35686,1.22916 0.79302,0.79302 0.43615,-0.43617 0.43615,-1.14988 0,-1.58604 z m 8.72314,1.38778 c 0,-0.32712 -0.26764,-0.59476 -0.59476,-0.59476 -0.32712,0 -0.59476,0.26764 -0.59476,0.59476 0,0.32712 0.26764,0.59476 0.59476,0.59476 0.32712,0 0.59476,-0.26764 0.59476,-0.59476 z M 75.41465,207.59692 c 0,-0.65424 -0.236051,-1.18952 -0.524558,-1.18952 -0.288507,0 -0.855381,0.53528 -1.259721,1.18952 -0.404341,0.65423 -0.168289,1.18952 0.524558,1.18952 0.692846,0 1.259721,-0.53529 1.259721,-1.18952 z m 141.55282,-0.59476 c 0,-0.32712 -0.26765,-0.59476 -0.59476,-0.59476 -0.32712,0 -0.59476,0.26764 -0.59476,0.59476 0,0.32712 0.26764,0.59476 0.59476,0.59476 0.32711,0 0.59476,-0.26764 0.59476,-0.59476 z m 72.16418,-2.5773 c -0.43616,-0.43615 -0.79302,-0.0793 -0.79302,0.79302 0,0.87231 0.35686,1.22917 0.79302,0.79302 0.43615,-0.43616 0.43615,-1.14988 0,-1.58604 z M 85.798168,203.30969 c -0.395278,-0.39527 -1.421238,-0.43752 -2.279917,-0.0939 -0.948915,0.37971 -0.667058,0.66158 0.718672,0.71866 1.253944,0.0516 1.95651,-0.2295 1.561245,-0.62476 z m 204.919502,-1.06561 c 0,-0.32712 -0.26764,-0.59476 -0.59476,-0.59476 -0.32711,0 -0.59476,0.26764 -0.59476,0.59476 0,0.32712 0.26765,0.59476 0.59476,0.59476 0.32712,0 0.59476,-0.26764 0.59476,-0.59476 z m 44.16396,-2.67642 c 1.47961,-1.88665 1.43753,-1.92872 -0.44911,-0.44911 -1.98145,1.55395 -2.61157,2.53077 -1.63255,2.53077 0.24701,0 1.18375,-0.93675 2.08166,-2.08166 z m -38.61286,0.0991 c -0.43616,-0.43615 -1.14987,-0.43615 -1.58603,0 -0.43615,0.4362 -0.0793,0.79305 0.79301,0.79305 0.87231,0 1.22917,-0.35685 0.79302,-0.79301 z m 37.27161,-4.70543 c 0,-1.58063 -0.32295,-1.66191 -1.78428,-0.44912 -0.98136,0.81446 -1.78428,1.68292 -1.78428,1.92993 0,0.24701 0.80292,0.44911 1.78428,0.44911 0.98135,0 1.78428,-0.86846 1.78428,-1.92992 z m -108.24628,-4.7397 c 0,-0.91135 -0.53528,-1.65701 -1.18952,-1.65701 -0.65423,0 -1.18952,0.22386 -1.18952,0.49747 0,0.27361 -0.32723,1.35024 -0.7272,2.39252 -0.53225,1.38703 -0.21336,1.69789 1.18952,1.15955 1.0542,-0.40453 1.91672,-1.48117 1.91672,-2.39253 z m 102.89344,0.72203 c 0.40434,-0.65424 0.16829,-1.18952 -0.52456,-1.18952 -0.69284,0 -1.25972,0.53528 -1.25972,1.18952 0,0.65423 0.23605,1.18952 0.52455,1.18952 0.28851,0 0.85539,-0.53529 1.25973,-1.18952 z m 11.30043,0.66496 c 0,-0.2885 -0.61799,-0.9065 -1.37331,-1.37331 -0.85086,-0.52586 -1.05042,-0.32631 -0.52455,0.52455 0.84746,1.37122 1.89786,1.84099 1.89786,0.84876 z m -92.78252,-3.044 c 0,-0.65424 -0.23605,-1.18952 -0.52455,-1.18952 -0.28851,0 -0.85539,0.53528 -1.25973,1.18952 -0.40434,0.65423 -0.16829,1.18952 0.52456,1.18952 0.69285,0 1.25972,-0.53529 1.25972,-1.18952 z m -38.90948,-3.56856 c 0.34218,-1.30847 0.13696,-2.37904 -0.45602,-2.37904 -0.59299,0 -1.07816,1.07057 -1.07816,2.37904 0,1.30847 0.20522,2.37904 0.45603,2.37904 0.25081,0 0.73598,-1.07057 1.07815,-2.37904 z m 12.6712,-1.86724 c -1.92784,-2.32292 -3.10883,-2.13499 -3.82636,0.60885 -0.80331,3.07186 0.14265,3.81961 2.9389,2.3231 1.83317,-0.98109 2.01313,-1.57561 0.88746,-2.93195 z m 23.85924,-0.5118 c 0,-0.65424 -0.56687,-1.18952 -1.25972,-1.18952 -0.69285,0 -0.9289,0.53528 -0.52456,1.18952 0.40435,0.65424 0.97122,1.18952 1.25973,1.18952 0.28851,0 0.52455,-0.53528 0.52455,-1.18952 z m 8.32664,-6.54236 c 0,-0.32712 -0.26764,-0.59476 -0.59476,-0.59476 -0.32712,0 -0.59476,0.26764 -0.59476,0.59476 0,0.32712 0.26764,0.59476 0.59476,0.59476 0.32712,0 0.59476,-0.26764 0.59476,-0.59476 z m -123.71003,-4.75808 c 0,-0.32711 -0.26764,-0.59476 -0.59476,-0.59476 -0.32712,0 -0.59476,0.26765 -0.59476,0.59476 0,0.32712 0.26764,0.59476 0.59476,0.59476 0.32712,0 0.59476,-0.26764 0.59476,-0.59476 z m 140.6793,-1.78351 c 10.26182,-4.53929 9.71488,-10.29984 -2.06218,-21.71967 -10.79443,-10.46702 -14.8629,-15.83427 -15.04507,-19.848 -0.0966,-2.12923 -0.30478,-2.39665 -0.69466,-0.89259 -0.73573,2.83823 -3.35254,1.8515 -3.25228,-1.22636 0.0431,-1.32366 -0.87382,-3.00132 -2.03764,-3.72814 -1.70965,-1.06769 -1.98584,-0.98215 -1.43804,0.44538 1.03562,2.6988 -0.63238,2.13988 -6.2644,-2.09906 -2.93514,-2.20914 -5.70094,-5.52274 -6.45364,-7.73188 -0.72447,-2.12627 -1.95437,-3.86594 -2.73311,-3.86594 -3.30078,0 -10.14235,-5.99235 -10.51205,-9.207208 -0.59052,-5.135183 -10.18908,-4.639926 -14.73296,0.760168 -3.7598,4.46826 -9.56129,7.78825 -10.61898,6.07686 -0.44292,-0.71666 -1.83513,-0.44409 -3.58375,0.70165 -3.66453,2.4011 -5.56054,1.21996 -4.59915,-2.86507 0.59499,-2.52815 0.44091,-2.9062 -0.73535,-1.80433 -0.81842,0.76667 -2.15539,1.13785 -2.97104,0.82486 -0.81565,-0.31299 -1.74485,0.43226 -2.06491,1.65613 -0.43417,1.66029 0.0452,2.20584 1.88821,2.14893 4.67082,-0.14423 3.42805,3.78947 -3.40989,10.79326 -6.73369,6.897 -8.84247,7.24185 -8.89653,1.45482 -0.01,-1.07242 -1.07098,-3.21356 -2.35768,-4.75808 -3.31396,-3.97794 -3.40195,0.71858 -0.1279,6.82725 4.28613,7.99699 -16.15899,32.60325 -29.52984,35.53999 -4.80181,1.05465 -8.13476,4.91113 -6.49334,7.5133 1.4789,2.34454 29.573,3.08504 37.67682,0.99308 3.12489,-0.80668 9.42528,-0.69641 20.22183,0.35392 8.62549,0.83912 27.17266,1.7828 41.21592,2.09708 17.55616,0.39287 26.66104,1.06696 29.14323,2.15762 4.76938,2.09566 4.32111,2.12126 10.46838,-0.59797 z m -20.53783,0.59399 c 0,-0.32711 -0.26764,-0.59475 -0.59476,-0.59475 -0.32712,0 -0.59476,0.26764 -0.59476,0.59475 0,0.32712 0.26764,0.59476 0.59476,0.59476 0.32712,0 0.59476,-0.26764 0.59476,-0.59476 z m 29.36104,-26.98722 c -0.37972,-0.94891 -0.66158,-0.66706 -0.71866,0.71867 -0.0516,1.25395 0.2295,1.95651 0.62476,1.56125 0.39527,-0.39528 0.43752,-1.42124 0.0938,-2.27992 z m -1.20907,-4.13854 c -0.43616,-0.43615 -0.79302,-0.0793 -0.79302,0.79302 0,0.87231 0.35686,1.22916 0.79302,0.79301 0.43615,-0.43616 0.43615,-1.14987 0,-1.58603 z m -120.93449,-5.08437 c 0,-1.26986 -0.53528,-2.63967 -1.18952,-3.04401 -0.67465,-0.41695 -1.18952,0.58241 -1.18952,2.30884 0,1.6742 0.53529,3.044 1.18952,3.044 0.65424,0 1.18952,-1.03897 1.18952,-2.30883 z m 116.53334,-2.15187 c -0.0736,-1.66127 -4.77263,-6.58736 -5.54595,-5.81404 -0.42238,0.42238 0.48724,2.10406 2.02136,3.73707 2.95287,3.14318 3.5885,3.51774 3.52459,2.07697 z m -28.5089,-12.71713 c 0,-0.2885 -0.61799,-0.9065 -1.37331,-1.37331 -0.85086,-0.52586 -1.05042,-0.32631 -0.52455,0.52455 0.84746,1.37122 1.89786,1.84099 1.89786,0.84876 z m 5.9476,-0.66496 c 0,-0.65424 -0.23605,-1.18952 -0.52455,-1.18952 -0.28851,0 -0.85539,0.53528 -1.25973,1.18952 -0.40434,0.65423 -0.16829,1.18952 0.52456,1.18952 0.69284,0 1.25972,-0.53529 1.25972,-1.18952 z m -80.47685,-7.78318 c -0.38741,-1.00957 -0.9595,-1.58047 -1.27129,-1.26866 -0.31181,0.31181 -0.21409,1.13782 0.21714,1.83558 1.17293,1.89783 1.85848,1.52914 1.05415,-0.56692 z m 60.25502,-4.63657 c 0,-0.28851 -0.53528,-0.85539 -1.18952,-1.25973 -0.65424,-0.40434 -1.18952,-0.16829 -1.18952,0.52456 0,0.69284 0.53528,1.25972 1.18952,1.25972 0.65424,0 1.18952,-0.23605 1.18952,-0.52455 z m -3.56856,-2.44925 c 0,-0.32711 -0.26764,-0.59476 -0.59476,-0.59476 -0.32712,0 -0.59476,0.26765 -0.59476,0.59476 0,0.32712 0.26764,0.59476 0.59476,0.59476 0.32712,0 0.59476,-0.26764 0.59476,-0.59476 z m -24.97991,-2.93647 c 0,-0.633688 -0.80292,-0.844068 -1.78428,-0.46749 -0.98135,0.37659 -1.78428,0.89506 -1.78428,1.15219 0,0.25712 0.80293,0.46749 1.78428,0.46749 0.98136,0 1.78428,-0.51848 1.78428,-1.15219 z m 24.13475,-1.225658 c 0.34199,-1.307825 0.13679,-2.677616 -0.45603,-3.044 -0.59282,-0.366384 -1.07785,0.703648 -1.07785,2.37785 0,3.644748 0.67796,3.939178 1.53388,0.66615 z m -28.89283,-2.904779 c 0,-0.288506 -0.53528,-0.855383 -1.18952,-1.259724 -0.65423,-0.404342 -1.18952,-0.168294 -1.18952,0.524554 0,0.692847 0.53529,1.259725 1.18952,1.259725 0.65424,0 1.18952,-0.236048 1.18952,-0.524555 z m 2.95873,-9.735669 c 0.37609,-4.046544 0.31493,-4.115845 -1.87975,-2.129692 -2.22006,2.009134 -3.21999,4.791741 -1.29421,3.601543 0.53586,-0.331174 0.77475,1.109263 0.53088,3.200974 -0.37559,3.221516 -0.23711,3.474836 0.90548,1.656465 0.74188,-1.180658 1.5238,-4.028843 1.7376,-6.32929 z m 9.76079,3.443123 c -0.30159,-1.157367 -0.56818,-0.498444 -0.59242,1.464263 -0.0243,1.962707 0.22251,2.909636 0.54835,2.104296 0.32584,-0.805341 0.34566,-2.411192 0.0441,-3.568559 z m -16.68458,0.07649 c -0.43616,-0.436149 -0.79301,-0.07929 -0.79301,0.793017 0,0.872311 0.35685,1.229166 0.79301,0.793017 0.43615,-0.436161 0.43615,-1.149873 0,-1.586034 z m 11.8952,0 c -0.43616,-0.436149 -0.79302,-0.07929 -0.79302,0.793017 0,0.872311 0.35686,1.229166 0.79302,0.793017 0.43615,-0.436161 0.43615,-1.149873 0,-1.586034 z m 24.18689,-0.991262 c 0,-0.327118 -0.26764,-0.59476 -0.59476,-0.59476 -0.32712,0 -0.59476,0.267642 -0.59476,0.59476 0,0.327118 0.26764,0.59476 0.59476,0.59476 0.32712,0 0.59476,-0.267642 0.59476,-0.59476 z m -11.89519,-4.163318 c 0,-0.654236 -0.23605,-1.18952 -0.52456,-1.18952 -0.28851,0 -0.85538,0.535284 -1.25972,1.18952 -0.40435,0.654236 -0.1683,1.189519 0.52455,1.189519 0.69285,0 1.25973,-0.535283 1.25973,-1.189519 z m 9.51615,-2.973799 c 0,-0.327118 -0.26764,-0.59476 -0.59476,-0.59476 -0.32712,0 -0.59476,0.267642 -0.59476,0.59476 0,0.327118 0.26764,0.59476 0.59476,0.59476 0.32712,0 0.59476,-0.267642 0.59476,-0.59476 z m -5.9476,-1.189519 c 0,-0.327118 -0.26764,-0.59476 -0.59476,-0.59476 -0.32711,0 -0.59476,0.267642 -0.59476,0.59476 0,0.327117 0.26765,0.594759 0.59476,0.594759 0.32712,0 0.59476,-0.267642 0.59476,-0.594759 z M 340.28182,305.4349 c -1.55377,-15.118 -0.4622,-34.33208 2.09576,-36.89005 1.54944,-1.54944 3.65958,2.46789 3.78788,7.21146 0.0743,2.74783 0.30352,10.3489 0.50934,16.89125 0.53239,16.92331 -4.85947,27.70819 -6.39298,12.78734 z m 1.6791,-56.89868 c 0.0571,-1.38573 0.33895,-1.66759 0.71867,-0.71867 0.34361,0.85868 0.30136,1.88464 -0.0939,2.27991 -0.39526,0.39527 -0.67641,-0.3073 -0.62476,-1.56124 z m -8.42054,-89.7096 c 0,-0.87231 0.35685,-1.22917 0.79301,-0.79302 0.43615,0.43616 0.43615,1.14988 0,1.58604 -0.43616,0.43615 -0.79301,0.0793 -0.79301,-0.79302 z M 68.975492,147.25281 c -1.124417,-3.5377 1.089478,-7.98414 2.348314,-4.71641 0.454973,1.18104 0.302411,3.32217 -0.339025,4.75808 -1.166248,2.61074 -1.166248,2.61074 -2.009289,-0.0416 z M 309.74999,129.68339 c 0,-0.32712 0.26764,-0.59476 0.59476,-0.59476 0.32711,0 0.59476,0.26764 0.59476,0.59476 0,0.32712 -0.26765,0.59476 -0.59476,0.59476 -0.32712,0 -0.59476,-0.26764 -0.59476,-0.59476 z m -13.58081,-25.41502 c -0.51241,-0.8291 -0.61041,-1.82869 -0.21779,-2.22132 1.06459,-1.06457 2.22532,0.50114 1.65033,2.22612 -0.40291,1.20876 -0.6831,1.20782 -1.43254,-0.005 z M 92.464425,71.198685 c 0.436162,-0.436156 1.149873,-0.436156 1.586034,0 0.43615,0.436157 0.07929,0.793013 -0.793017,0.793013 -0.87231,0 -1.229166,-0.356856 -0.793017,-0.793013 z M 187.62598,42.650217 c 0.43616,-0.436156 1.14987,-0.436156 1.58603,0 0.43615,0.436158 0.0793,0.793013 -0.79301,0.793013 -0.87231,0 -1.22917,-0.356855 -0.79302,-0.793013 z M 388.25827,359.26066 c 0,-0.32712 -0.26764,-0.59476 -0.59476,-0.59476 -0.32711,0 -0.59476,0.26764 -0.59476,0.59476 0,0.32711 0.26765,0.59475 0.59476,0.59475 0.32712,0 0.59476,-0.26764 0.59476,-0.59475 z m 8.32664,-4.75808 c 0,-0.32712 -0.26764,-0.59476 -0.59476,-0.59476 -0.32712,0 -0.59476,0.26764 -0.59476,0.59476 0,0.32711 0.26764,0.59476 0.59476,0.59476 0.32712,0 0.59476,-0.26765 0.59476,-0.59476 z m -20.22183,-7.87228 c 0,-0.65423 -0.53529,-0.8587 -1.18952,-0.45436 -0.65424,0.40434 -1.18952,1.27044 -1.18952,1.92468 0,0.65423 0.53528,0.8587 1.18952,0.45436 0.65423,-0.40434 1.18952,-1.27044 1.18952,-1.92468 z m 13.08471,-6.54236 c 0,-2.28982 -0.48234,-3.86522 -1.07185,-3.50087 -0.58953,0.36434 -1.01967,2.50368 -0.95587,4.75408 0.15134,5.33928 2.02772,4.1796 2.02772,-1.25321 z m 9.51616,4.89848 c 0,-0.32712 -0.26764,-0.59476 -0.59476,-0.59476 -0.32712,0 -0.59476,0.26764 -0.59476,0.59476 0,0.32712 0.26764,0.59476 0.59476,0.59476 0.32712,0 0.59476,-0.26764 0.59476,-0.59476 z m -2.37904,-1.18952 c 0,-0.32712 -0.26764,-0.59476 -0.59476,-0.59476 -0.32712,0 -0.59476,0.26764 -0.59476,0.59476 0,0.32712 0.26764,0.59476 0.59476,0.59476 0.32712,0 0.59476,-0.26764 0.59476,-0.59476 z m -12.2917,-9.71441 c -0.43616,-0.43615 -0.79302,-0.0793 -0.79302,0.79302 0,0.87231 0.35686,1.22916 0.79302,0.79301 0.43615,-0.43616 0.43615,-1.14987 0,-1.58603 z m 3.96506,-2.18078 c 0,-0.98136 -0.51848,-1.78428 -1.15219,-1.78428 -0.63369,0 -0.84407,0.80292 -0.46749,1.78428 0.37659,0.98135 0.89506,1.78428 1.15219,1.78428 0.25711,0 0.46749,-0.80293 0.46749,-1.78428 z m -4.75808,0 c 0,-0.32712 -0.26764,-0.59476 -0.59475,-0.59476 -0.32712,0 -0.59476,0.26764 -0.59476,0.59476 0,0.32711 0.26764,0.59476 0.59476,0.59476 0.32711,0 0.59475,-0.26765 0.59475,-0.59476 z m 4.98937,-6.83974 c -2.14979,-2.1498 -2.61033,-2.26639 -2.61033,-0.66085 0,1.07222 -0.6691,2.2568 -1.4869,2.63241 -0.81779,0.37559 -0.32755,0.39843 1.08941,0.0507 1.41698,-0.34768 2.94261,-0.0395 3.3903,0.68488 0.44769,0.72438 1.1321,0.99892 1.52092,0.6101 0.38882,-0.38882 -0.46771,-1.88159 -1.9034,-3.31727 z m -8.05189,-1.78428 c -0.29738,-4.88197 -0.41775,-5.25042 -1.49722,-4.58328 -1.14231,0.70599 -0.33769,7.85446 0.88409,7.85446 0.44682,0 0.72273,-1.47203 0.61313,-3.27118 z m 16.14724,-0.29738 c 0,-0.65424 -0.23605,-1.18952 -0.52456,-1.18952 -0.2885,0 -0.85538,0.53528 -1.25972,1.18952 -0.40434,0.65424 -0.16829,1.18952 0.52455,1.18952 0.69285,0 1.25973,-0.53528 1.25973,-1.18952 z m -2.77554,-1.98254 c -0.43616,-0.43615 -1.14988,-0.43615 -1.58604,0 -0.43615,0.43616 -0.0793,0.79302 0.79302,0.79302 0.87231,0 1.22917,-0.35686 0.79302,-0.79302 z m -13.23406,-6.26496 c -0.43125,-0.69776 -1.68924,-1.20656 -2.79554,-1.13067 -1.81342,0.1244 -1.80651,0.19155 0.0702,0.68199 1.14492,0.29918 2.08166,1.12923 2.08166,1.84454 0,0.7153 0.32124,0.9793 0.71388,0.58668 0.39263,-0.39264 0.36103,-1.28478 -0.0702,-1.98254 z m 6.49344,-4.24245 c 0,-0.32712 -0.26764,-0.59476 -0.59476,-0.59476 -0.32711,0 -0.59476,0.26764 -0.59476,0.59476 0,0.32711 0.26765,0.59476 0.59476,0.59476 0.32712,0 0.59476,-0.26765 0.59476,-0.59476 z m 4.75808,0 c 0,-0.32712 -0.26764,-0.59476 -0.59476,-0.59476 -0.32712,0 -0.59476,0.26764 -0.59476,0.59476 0,0.32711 0.26764,0.59476 0.59476,0.59476 0.32712,0 0.59476,-0.26765 0.59476,-0.59476 z m -9.51615,-1.18952 c 0,-0.32712 -0.26765,-0.59476 -0.59476,-0.59476 -0.32712,0 -0.59476,0.26764 -0.59476,0.59476 0,0.32711 0.26764,0.59476 0.59476,0.59476 0.32711,0 0.59476,-0.26765 0.59476,-0.59476 z m 11.89519,0 c 0,-0.32712 -0.26764,-0.59476 -0.59476,-0.59476 -0.32712,0 -0.59476,0.26764 -0.59476,0.59476 0,0.32711 0.26764,0.59476 0.59476,0.59476 0.32712,0 0.59476,-0.26765 0.59476,-0.59476 z m -19.42881,-6.14586 c -0.43617,-0.43615 -1.14988,-0.43615 -1.58604,0 -0.43615,0.43616 -0.0793,0.79302 0.79302,0.79302 0.87231,0 1.22917,-0.35686 0.79302,-0.79302 z m 25.37641,-6.93886 c 0,-0.32712 -0.26764,-0.59476 -0.59476,-0.59476 -0.32712,0 -0.59476,0.26764 -0.59476,0.59476 0,0.32712 0.26764,0.59476 0.59476,0.59476 0.32712,0 0.59476,-0.26764 0.59476,-0.59476 z m -4.16332,-8.92139 c 0.40434,-0.65424 0.16829,-1.18952 -0.52455,-1.18952 -0.69285,0 -1.25973,0.53528 -1.25973,1.18952 0,0.65423 0.23605,1.18951 0.52455,1.18951 0.28851,0 0.85539,-0.53528 1.25973,-1.18951 z m -10.56149,-10.29116 c -1.73472,-1.73471 -3.45816,-2.84988 -3.82989,-2.47816 -0.95376,0.95376 3.34624,5.41354 5.33481,5.53308 0.97902,0.0589 0.36752,-1.18247 -1.50492,-3.05492 z m -7.87606,-2.56621 c 0,-2.05494 -3.21368,-5.33247 -3.99268,-4.07201 -0.433,0.70061 0.0589,2.11991 1.09291,3.154 2.09541,2.09542 2.89977,2.35006 2.89977,0.91801 z m 10.32873,-19.4827 c -0.37972,-0.94891 -0.66159,-0.66705 -0.71866,0.71868 -0.0516,1.25394 0.22949,1.95651 0.62476,1.56124 0.39526,-0.39528 0.43751,-1.42124 0.0938,-2.27992 z m 12.27214,-0.37172 c 0,-0.32712 -0.26764,-0.59476 -0.59476,-0.59476 -0.32712,0 -0.59476,0.26764 -0.59476,0.59476 0,0.32712 0.26764,0.59476 0.59476,0.59476 0.32712,0 0.59476,-0.26764 0.59476,-0.59476 z m 1.98253,-16.85153 c -0.43616,-0.43615 -0.79301,-0.0793 -0.79301,0.79302 0,0.87231 0.35685,1.22916 0.79301,0.79301 0.43615,-0.43616 0.43615,-1.14987 0,-1.58603 z m -28.15196,-94.9633 c 0,-0.32712 -0.26764,-0.59476 -0.59476,-0.59476 -0.32712,0 -0.59476,0.26764 -0.59476,0.59476 0,0.32711 0.26764,0.59476 0.59476,0.59476 0.32712,0 0.59476,-0.26765 0.59476,-0.59476 z m 5.9476,-11.8952 c 0,-0.32712 -0.26765,-0.59476 -0.59476,-0.59476 -0.32712,0 -0.59476,0.26764 -0.59476,0.59476 0,0.32712 0.26764,0.59476 0.59476,0.59476 0.32711,0 0.59476,-0.26764 0.59476,-0.59476 z m 1.18952,-4.75808 c 0,-0.32711 -0.26765,-0.59476 -0.59476,-0.59476 -0.32712,0 -0.59476,0.26765 -0.59476,0.59476 0,0.32712 0.26764,0.59476 0.59476,0.59476 0.32711,0 0.59476,-0.26764 0.59476,-0.59476 z m 9.11965,-14.47249 c -0.43616,-0.43615 -0.79302,-0.0793 -0.79302,0.79302 0,0.87231 0.35686,1.22917 0.79302,0.79302 0.43615,-0.43616 0.43615,-1.14988 0,-1.58604 z m -4.36158,-0.3965 c 0,-0.65424 -0.23604,-1.18952 -0.52455,-1.18952 -0.28851,0 -0.85538,0.53528 -1.25973,1.18952 -0.40434,0.65424 -0.16829,1.18952 0.52456,1.18952 0.69285,0 1.25972,-0.53528 1.25972,-1.18952 z m -13.48121,-7.93013 c -0.43616,-0.43615 -1.14988,-0.43615 -1.58604,0 -0.43615,0.43616 -0.0793,0.79301 0.79302,0.79301 0.87231,0 1.22917,-0.35685 0.79302,-0.79301 z m 2.77554,-9.544112 c 0,-1.700632 -0.27924,-1.674082 -2.37904,0.226211 -1.30847,1.184155 -2.37904,2.624151 -2.37904,3.20001 0,0.575858 1.07057,0.474059 2.37904,-0.226211 1.30847,-0.70027 2.37904,-2.140279 2.37904,-3.20001 z m 14.27423,2.60525 c 0,-0.327118 -0.26764,-0.59476 -0.59476,-0.59476 -0.32712,0 -0.59476,0.267642 -0.59476,0.59476 0,0.327118 0.26764,0.59476 0.59476,0.59476 0.32712,0 0.59476,-0.267642 0.59476,-0.59476 z m 5.43781,-2.464006 c -1.02809,-1.028078 -1.86925,-2.455502 -1.86925,-3.172056 0,-0.716543 -0.31652,-0.98629 -0.70337,-0.599435 -1.25315,1.253159 0.81028,5.640737 2.65278,5.640737 1.55842,0 1.54809,-0.240996 -0.0802,-1.869246 z m -16.14348,-4.673111 c 0,-0.327118 -0.26765,-0.59476 -0.59476,-0.59476 -0.32712,0 -0.59476,0.267642 -0.59476,0.59476 0,0.327118 0.26764,0.59476 0.59476,0.59476 0.32711,0 0.59476,-0.267642 0.59476,-0.59476 z m -7.53362,-6.145855 c -0.43616,-0.436149 -1.14988,-0.436149 -1.58604,0 -0.43615,0.436161 -0.0793,0.793017 0.79302,0.793017 0.87231,0 1.22917,-0.356856 0.79302,-0.793017 z m 13.48121,-0.991262 c 0,-0.327118 -0.26764,-0.59476 -0.59476,-0.59476 -0.32711,0 -0.59476,0.267642 -0.59476,0.59476 0,0.327118 0.26765,0.59476 0.59476,0.59476 0.32712,0 0.59476,-0.267642 0.59476,-0.59476 z m 10.70568,-2.379039 c 0,-0.327118 -0.26764,-0.59476 -0.59476,-0.59476 -0.32712,0 -0.59476,0.267642 -0.59476,0.59476 0,0.327118 0.26764,0.59476 0.59476,0.59476 0.32712,0 0.59476,-0.267642 0.59476,-0.59476 z m -13.10293,-2.081659 c -0.0416,-3.395432 -2.32396,-5.133825 -2.34261,-1.784279 -0.01,1.799148 0.51707,3.271178 1.17131,3.271178 0.65423,0 1.18132,-0.669104 1.1713,-1.486899 z m 15.12413,-6.823124 c -0.7704,-2.041002 -1.78533,-3.107333 -2.38592,-2.506745 -0.60059,0.600587 -0.47451,2.111533 0.29637,3.551946 2.03046,3.793953 3.61664,3.000539 2.08955,-1.045201 z m -23.43255,0.578147 c 0,-0.327118 -0.26764,-0.59476 -0.59476,-0.59476 -0.32712,0 -0.59476,0.267642 -0.59476,0.59476 0,0.327117 0.26764,0.594759 0.59476,0.594759 0.32712,0 0.59476,-0.267642 0.59476,-0.594759 z m 21.41135,-11.895195 c 0,-0.327118 -0.26764,-0.59476 -0.59476,-0.59476 -0.32712,0 -0.59476,0.267642 -0.59476,0.59476 0,0.327117 0.26764,0.594759 0.59476,0.594759 0.32712,0 0.59476,-0.267642 0.59476,-0.594759 z m 2.61694,-9.159301 c -0.76328,-0.763275 -1.78265,-0.99289 -2.26528,-0.510256 -0.48264,0.482633 -0.10563,1.354589 0.83786,1.93768 2.22153,1.372985 3.22468,0.369837 1.42742,-1.427424 z M 68.022351,37.198253 c 0.997383,-1.144913 1.302234,-2.081659 0.677447,-2.081659 -1.965156,0 -3.994604,2.756693 -3.896915,5.293362 0.06604,1.714948 0.288581,1.909075 0.749978,0.654235 0.360837,-0.981353 1.472109,-2.721025 2.46949,-3.865938 z m 104.338129,-0.89214 c -0.40434,-0.654235 -1.37268,-1.181322 -2.15186,-1.171304 -0.85123,0.01094 -0.70452,0.478457 0.36758,1.171304 2.28521,1.476819 2.697,1.476819 1.78428,0 z m 4.16332,0.59476 c 0,-0.327118 -0.26764,-0.59476 -0.59476,-0.59476 -0.32712,0 -0.59476,0.267642 -0.59476,0.59476 0,0.327118 0.26764,0.59476 0.59476,0.59476 0.32712,0 0.59476,-0.267642 0.59476,-0.59476 z M 97.619015,35.5131 c -0.43616,-0.436156 -1.14987,-0.436156 -1.586031,0 -0.436149,0.436158 -0.07929,0.793013 0.793017,0.793013 0.872314,0 1.229164,-0.356855 0.793014,-0.793013 z M 288.33863,31.642549 c 0,-1.231136 -6.95971,-3.047464 -7.93604,-2.071129 -0.34585,0.345848 -0.27598,1.199713 0.15526,1.897475 0.95805,1.550147 7.78078,1.702419 7.78078,0.173654 z m -96.35107,-2.613956 c 0,-0.654236 -0.53529,-0.858697 -1.18952,-0.454356 -0.65424,0.40434 -1.18952,1.270447 -1.18952,1.924683 0,0.654235 0.53528,0.858696 1.18952,0.454356 0.65423,-0.404341 1.18952,-1.270448 1.18952,-1.924683 z m 205.39037,-0.65261 c -0.43616,-0.436156 -0.79302,-0.0793 -0.79302,0.793013 0,0.872314 0.35686,1.22917 0.79302,0.793014 0.43615,-0.436158 0.43615,-1.149869 0,-1.586027 z M 164.62861,27.979477 c 0,-0.654236 -0.50369,-1.18952 -1.11932,-1.18952 -0.61562,0 -1.45014,0.535284 -1.85448,1.18952 -0.40434,0.654236 0.0993,1.189519 1.11931,1.189519 1.01997,0 1.85449,-0.535283 1.85449,-1.189519 z m 7.81483,-5.000615 c -1.86624,-2.664428 -1.86724,-2.663857 -1.86724,1.068254 0,2.05376 0.66911,3.964211 1.4869,4.24545 2.25958,0.777065 2.48089,-2.314754 0.38034,-5.313704 z m 4.08036,5.595375 c 0,-0.327118 -0.26764,-0.59476 -0.59476,-0.59476 -0.32712,0 -0.59476,0.267642 -0.59476,0.59476 0,0.327118 0.26764,0.594759 0.59476,0.594759 0.32712,0 0.59476,-0.267641 0.59476,-0.594759 z m 3.33796,-5.991127 c -0.0927,-2.464824 -0.5975,-3.7675 -1.21914,-3.145857 -0.94699,0.946992 -0.12134,7.352704 0.94772,7.352704 0.23626,0 0.35841,-1.893081 0.27142,-4.206847 z m 84.68649,1.964615 c 0,-1.937222 -6.11787,-5.200425 -7.38124,-3.937064 -0.77938,0.779391 -0.0303,1.782596 2.20884,2.958357 4.10541,2.155693 5.1724,2.357585 5.1724,0.978707 z m -61.43677,-1.04073 c 0.81735,-1.322497 -2.47322,-8.612233 -3.88753,-8.612233 -2.26744,0 -3.8535,4.56757 -2.47832,7.137117 1.24763,2.331205 5.26187,3.261399 6.36585,1.475116 z m 195.45597,-1.078609 c -0.43617,-0.436157 -0.79302,-0.0793 -0.79302,0.793013 0,0.872314 0.35685,1.22917 0.79302,0.793013 0.43614,-0.436157 0.43614,-1.149869 0,-1.586026 z M 57.571857,21.43712 c 0,-0.327118 -0.267641,-0.59476 -0.594759,-0.59476 -0.327118,0 -0.59476,0.267642 -0.59476,0.59476 0,0.327118 0.267642,0.594759 0.59476,0.594759 0.327118,0 0.594759,-0.267641 0.594759,-0.594759 z m 23.393888,-1.387773 c -0.436161,-0.436157 -0.793017,-0.0793 -0.793017,0.793013 0,0.872314 0.356856,1.22917 0.793017,0.793013 0.436149,-0.436157 0.436149,-1.149869 0,-1.586026 z M 191.3928,19.65284 c 0.40434,-0.654235 -0.13095,-1.189519 -1.18952,-1.189519 -1.05858,0 -1.59386,0.535284 -1.18952,1.189519 0.40434,0.654236 0.93962,1.18952 1.18952,1.18952 0.24989,0 0.78517,-0.535284 1.18952,-1.18952 z M 57.571857,17.868561 c 0,-0.327118 -0.267641,-0.59476 -0.594759,-0.59476 -0.327118,0 -0.59476,0.267642 -0.59476,0.59476 0,0.327118 0.267642,0.59476 0.59476,0.59476 0.327118,0 0.594759,-0.267642 0.594759,-0.59476 z m 40.443668,0 c 0,-0.327118 -0.26765,-0.59476 -0.59476,-0.59476 -0.32712,0 -0.594764,0.267642 -0.594764,0.59476 0,0.327118 0.267644,0.59476 0.594764,0.59476 0.32711,0 0.59476,-0.267642 0.59476,-0.59476 z m 61.855005,-0.59476 c 0,-0.654235 -0.23605,-1.189519 -0.52456,-1.189519 -0.2885,0 -0.85538,0.535284 -1.25972,1.189519 -0.40434,0.654236 -0.16829,1.18952 0.52455,1.18952 0.69285,0 1.25973,-0.535284 1.25973,-1.18952 z m 101.70392,0 c 0.40434,-0.654235 0.46751,-1.189519 0.1404,-1.189519 -0.32712,0 -0.92558,0.535284 -1.32992,1.189519 -0.40434,0.654236 -0.46752,1.18952 -0.1404,1.18952 0.32712,0 0.92557,-0.535284 1.32992,-1.18952 z m 126.68382,0 c 0,-0.654235 -0.83452,-1.189519 -1.85448,-1.189519 -1.01997,0 -1.52366,0.535284 -1.11932,1.189519 0.40435,0.654236 1.23886,1.18952 1.85449,1.18952 0.61562,0 1.11931,-0.535284 1.11931,-1.18952 z M 194.36659,16.084282 c 0,-0.654236 -0.53528,-1.18952 -1.18951,-1.18952 -0.65424,0 -1.18952,0.535284 -1.18952,1.18952 0,0.654236 0.53528,1.189519 1.18952,1.189519 0.65423,0 1.18951,-0.535283 1.18951,-1.189519 z M 81.362247,14.894762 c 0,-0.654235 -0.535283,-1.189519 -1.189519,-1.189519 -0.654236,0 -1.18952,0.535284 -1.18952,1.189519 0,0.654236 0.535284,1.18952 1.18952,1.18952 0.654236,0 1.189519,-0.535284 1.189519,-1.18952 z m 46.391253,0.59476 c 0,-0.327118 -0.26764,-0.59476 -0.59476,-0.59476 -0.32711,0 -0.59476,0.267642 -0.59476,0.59476 0,0.327118 0.26765,0.59476 0.59476,0.59476 0.32712,0 0.59476,-0.267642 0.59476,-0.59476 z M 71.449585,12.91223 c -0.436157,-0.436157 -0.793013,-0.0793 -0.793013,0.793013 0,0.872314 0.356856,1.22917 0.793013,0.793013 0.436157,-0.436157 0.436157,-1.149869 0,-1.586026 z m 308.085545,1.189519 c -0.43616,-0.436156 -1.14987,-0.436156 -1.58603,0 -0.43615,0.436158 -0.0793,0.793013 0.79302,0.793013 0.87231,0 1.22916,-0.356855 0.79301,-0.793013 z"
       id="path1" />
  </g>
</svg>
